<svg width="299" height="299" viewBox="0 0 299 299" fill="none" xmlns="http://www.w3.org/2000/svg">
<path d="M140.769 0.354837C135.561 0.696702 128.804 1.55994 123.698 2.52671C122.102 2.82648 122.907 2.65731 121.808 2.8705C119.667 3.29208 117.659 3.74749 115.556 4.25361C114.859 4.42224 115.719 4.17904 114.988 4.35701C110.987 5.33833 107.239 6.44038 103.273 7.7703C83.7694 14.3306 65.9639 24.7904 50.5924 38.7999C45.5112 43.4046 39.7087 49.4203 35.3047 54.9714C34.7898 55.6179 35.1688 55.2908 35.076 55.4179C33.6316 57.4181 33.9995 56.6635 32.9939 57.922C29.0151 62.9253 25.056 68.858 22.0367 74.2158C20.7583 76.4994 22.2235 74.3141 20.8406 76.5584C20.7453 76.715 20.9699 76.0795 20.6129 76.7029C19.7963 78.1157 18.3915 80.859 17.8271 81.9896C16.7339 84.1642 16.5642 84.5274 15.603 86.6147C14.2938 89.4745 12.8022 92.9009 11.6496 96.0762C11.4044 96.7543 11.8519 95.903 11.475 96.9889C11.0926 98.0717 10.0954 100.933 9.75641 101.902C9.41156 102.868 9.45066 102.422 9.37278 102.588C8.71472 103.955 7.98839 107.398 7.88297 107.839C5.79545 115.808 4.30966 122.749 3.39627 130.425C2.7141 136.219 2.43766 142.425 2.45166 148.001C2.45171 148.047 2.45178 148.093 2.45186 148.139C2.47924 154.817 2.77567 160.434 3.61011 166.864C3.70034 167.54 3.77993 166.724 3.89231 167.549C5.1007 176.312 7.04589 184.899 9.6451 193.315C9.90732 194.16 9.38659 193.13 9.63977 193.978C11.1348 199.17 14.1078 207.274 16.2235 209.831C17.7329 213.162 19.7512 217.12 21.2304 220.051C22.1874 221.939 20.9872 220.26 22.3676 222.464C22.6816 222.959 22.4456 222.215 22.9062 222.962C24.8477 226.108 26.9973 229.527 29.1831 232.463C29.6278 233.06 29.6422 232.801 29.7876 232.955C30.9967 234.262 32.4515 236.841 32.8267 237.367C35.6501 241.368 38.0319 244.051 41.1016 247.419C41.8178 248.198 41.1323 247.13 41.8281 247.871C45.4387 251.715 49.3591 255.521 53.196 258.979C54.0503 259.748 53.1248 259.202 53.5274 259.577C55.3138 261.221 55.9617 261.284 57.7186 262.8C58.091 263.119 57.7723 263.076 57.8308 263.146C58.7482 264.243 59.964 264.665 60.2543 264.875C63.9479 267.524 66.0922 269.544 69.8164 271.893C70.2633 272.171 69.3795 271.353 70.6292 272.142C78.9593 277.395 88.2753 282.124 97.343 285.732C98.7554 286.293 97.6834 286.063 97.7655 286.115C99.1214 286.958 100.211 286.896 100.683 287.045C104.397 288.233 107.797 289.622 110.489 289.838C123.249 293.493 136.44 295.082 149.622 295.247C149.622 295.247 149.622 295.247 149.622 295.247C152.892 295.288 156.096 295.245 159.358 295.123C159.567 295.114 159.207 295.348 159.624 295.33C164.643 295.072 163.639 294.806 166.898 294.054C167.715 293.865 170.289 294.007 170.517 294.005C171.345 294.018 170.549 294.446 170.824 294.432C173.095 294.293 172.59 293.343 175.596 292.823C175.691 292.808 175.328 293.065 175.584 293.038C176.381 292.957 177.144 292.738 177.921 292.654C179.692 292.456 180.439 292.822 183.044 291.931C183.371 291.812 182.734 291.382 185.384 290.76C186.44 290.53 191.095 289.244 192.384 288.869C193.682 288.513 192.854 288.961 192.948 288.941C196.497 288.087 195.211 288.592 197.064 288.364C198.915 288.117 198.15 287.459 198.819 287.123C199.487 286.792 202.064 286.056 202.701 285.879C203.34 285.708 202.618 286.114 203.177 285.94C206.879 284.755 204.598 284.914 205.726 284.311C208.366 282.87 210.761 282.498 213.272 281.37C213.95 281.064 213.34 281.196 213.932 280.896C216.27 279.697 217.769 279.157 220.306 277.573C220.725 277.315 222.644 275.813 224.126 275.261C224.337 275.183 223.875 275.639 224.856 275.1C226.321 274.301 228.906 272.735 230.377 271.702C231.463 270.941 230.054 271.564 231.488 270.709C232.123 270.326 231.066 271.217 232.253 270.485C233.441 269.762 236.336 267.706 237.411 266.89C238.49 266.083 237.781 266.367 237.861 266.291C238.348 265.842 240.338 264.195 240.514 264.051C249.535 256.931 257.363 249.636 264.367 240.866C264.914 240.177 264.393 240.51 264.475 240.403C266.287 238.001 265.22 240.185 266.658 238.631C266.156 238.627 266.986 237.697 268.219 235.968C268.811 235.133 268.356 235.49 268.399 235.406C269.111 234.051 269.962 233.365 270.17 233.178C270.935 232.488 271.339 231.436 271.847 230.955C272.354 230.471 271.655 231.902 272.792 230.207C272.993 229.655 271.851 230.707 272.658 229.39C275.782 224.47 281.294 215.097 283.239 210.816C285.24 206.59 285.775 205.165 286.844 202.661C288.714 198.101 287.819 199.685 288.746 196.781C289.638 193.852 289.738 195.455 290.009 195.081C290.274 194.712 290.292 194.218 290.529 193.727C290.764 193.236 290.493 194.376 290.907 193.175C291.332 191.97 292.081 188.59 292.062 188.117C292.031 187.123 291.337 188.549 292.307 185.347C292.362 185.162 292.359 185.808 292.561 185.098C294.15 179.484 295.329 173.494 296.202 167.721C296.322 166.926 296.398 167.661 296.469 167.198C297.164 162.363 296.662 164.049 296.611 161.377C296.967 162.008 297.397 160.575 297.624 156.86C297.748 154.621 297.543 155.01 297.475 153.568C297.455 153.137 297.623 151.568 297.543 151.28C297.282 150.332 296.976 151.814 297.125 148.001C297.125 147.999 297.125 147.998 297.125 147.996C297.127 147.937 297.147 147.965 297.172 148.001C297.205 148.048 297.247 148.108 297.271 148.001C297.28 147.958 297.287 147.889 297.288 147.783C297.321 144.031 297.034 143.602 296.807 139.585C296.632 136.423 296.278 130.821 295.783 127.254C296.224 127.273 295.624 123.912 295.093 122.601C294.709 120.294 294.206 117.833 293.751 115.612C293.594 114.85 293.821 115.322 293.812 115.224C293.674 113.71 293.165 112.787 293.035 112.301C291.614 107.021 290.496 102.691 288.562 97.8448C288.492 97.673 288.149 97.4825 287.842 96.1065C287.822 96.0173 288.541 97.5913 287.684 95.287C286.833 92.9839 285.186 88.6481 283.627 85.6107C283.256 84.8741 282.182 83.078 281.565 81.5135C281.483 81.3047 281.656 81.4912 281.545 81.1859C281.182 80.2003 280.706 79.8077 280.316 78.6298C279.926 77.4564 278.841 75.1224 276.956 72.235C276.895 72.1424 276.321 71.5391 275.756 70.6136C274.858 69.1354 273.563 67.0497 272.553 65.5552C272.07 64.8393 272.287 65.3593 272.202 65.2361C268.879 60.4716 266.476 57.1043 262.497 52.3151C261.768 51.4351 259.515 49.0541 258.083 47.3706C256.497 45.5324 258.591 46.986 254.582 43.0838C252.943 41.5272 250.53 39.9366 247.695 37.0483C241.77 31.9133 236.038 27.4286 229.373 23.2498C229.073 23.0617 228.066 22.5629 227.36 22.1241C226.312 21.472 225.76 21.0784 225.005 20.6255C221.838 18.7313 218.848 17.1535 215.669 15.5535C214.46 14.9504 214.904 15.1136 213.453 14.4116C212.002 13.7186 211.006 13.3165 209.019 12.4095C207.514 11.7269 206.043 10.9838 204.008 10.1717C203.891 10.2422 202.497 9.67313 199.976 8.78623C199.492 8.61696 199.998 8.83534 199.768 8.75687C198.835 8.43823 197.981 8.1109 197.087 7.82643C196.87 7.75722 196.849 7.78348 196.671 7.72878C195.155 7.25774 192.677 6.4152 192.252 6.28136C190.618 5.74843 189.833 5.56585 188.563 5.2008C187.292 4.842 189.204 5.33657 187.716 4.92874C184.641 4.08668 180.626 3.18045 177.45 2.58614C176.18 2.34836 177.042 2.53436 176.86 2.50086C174.234 2.01359 171.549 1.5885 170.084 1.42502C168.26 1.09242 168.494 1.19306 164.684 0.766082C164.387 0.73497 164.005 0.663885 165.158 0.77457C166.314 0.88596 168.059 1.09675 169.647 1.30013C170.026 1.34489 172.177 1.60623 172.474 1.65114C174.786 1.98026 175.092 2.13106 175.214 2.15389C176.584 2.43513 179.194 2.88297 179.884 3.02322C183.041 3.65071 185.665 4.2998 188.271 4.97343C189.969 5.41824 190.157 5.38465 191.481 5.76466C195.867 7.06112 197.346 7.71253 201.442 9.05871C202.319 9.35951 201.51 8.9018 204.571 10.1898C204.766 10.2683 207.008 11.2682 208.343 11.7786C208.511 11.8417 208.521 11.8034 208.74 11.8932C210.202 12.4985 211.153 12.9557 212.721 13.6634C214.285 14.3702 216.169 15.2545 217.91 16.1641C218.963 16.7104 220.26 17.5003 220.749 17.7917C222.128 18.6096 223.673 19.3665 224.49 19.9334C225.311 20.508 223.571 19.6182 225.794 20.9991C225.945 20.9357 226.206 20.9338 226.409 20.8996C231.348 23.8599 236.007 27.0862 240.59 30.599C241.158 31.0353 240.63 30.5206 241.24 30.9877C243.807 32.9643 245.95 34.816 248.488 37.0167C250.452 38.7209 252.613 40.591 254.574 42.4818C255.619 43.789 258.49 46.6272 260.435 48.8255C261.117 49.5933 261.026 49.5827 261.495 50.1423C263.254 52.2635 262.554 51.163 263.074 51.7134C265.281 54.1014 265.105 54.603 267.464 57.6028C267.591 57.7591 269.294 59.5756 269.507 59.8427C270.88 61.5237 269.649 60.1832 270.433 61.2894C271.853 63.3171 272.783 64.7662 274.444 67.1471C274.929 67.8408 276.176 69.4605 276.919 70.9375C277.017 71.1312 276.875 71.0772 276.961 71.2285C278.509 73.9711 278.789 73.9043 279.775 75.4222C280.762 76.9451 281.884 79.5014 282.086 80.035C282.627 81.4237 281.504 79.0575 281.448 78.9962C280.844 78.25 281.827 80.0228 282.51 81.4155C282.345 81.7499 283.316 83.6843 283.214 82.8611C283.203 82.7672 282.64 81.6988 282.51 81.4155C283.391 82.497 284.492 84.6224 285.317 87.1384C285.693 88.3195 285.103 87.3081 286.626 90.723C287.302 92.2757 287.255 91.5871 287.875 92.9534C289.295 96.0852 290.601 100.341 291.687 103.712C292.08 104.929 291.831 103.702 292.102 104.533C292.819 106.744 293.288 108.748 293.926 111.002C293.983 111.205 293.986 110.671 294.17 111.373C295.546 116.709 296.413 121.449 297.239 127.147C297.651 129.894 298.268 134.84 298.439 137.72C298.657 140.958 298.699 144.612 298.652 148.001C298.628 149.87 298.58 151.628 298.553 153.144C298.491 155.92 298.662 155.312 298.712 156.517C298.816 158.849 298.086 162.874 297.961 163.408C297.962 163.422 298.143 161.044 297.945 162.304C297.705 163.024 297.963 163.38 297.961 163.408C297.906 163.771 297.31 168.525 297.188 169.461C297.132 169.973 297.326 169.71 297.294 169.977C296.513 176.351 295.233 182.657 293.399 188.909C293.365 189.019 293.238 188.803 293.159 189.061C292.052 192.647 291.515 195.016 290.621 197.992C289.719 200.965 288.767 203.262 287.777 204.836C286.937 207.019 285.44 210.044 284.533 211.745C283.63 213.449 283.833 213.854 283.767 214.011C281.616 218.877 279.951 221.486 277.073 226.178C275.709 228.418 272.895 232.786 271.261 235.11C269.982 236.954 269.1 237.982 267.885 239.656C267.72 239.882 268.03 239.765 267.983 239.837C266.727 241.788 267.074 240.647 266.721 240.975C265.429 242.153 264.658 242.889 262.846 245.218C262.429 245.753 261.589 247.656 260.779 248.605C259.725 249.835 259.975 249.235 258.862 250.512C258.766 250.621 258.889 250.695 258.165 251.45C254.806 254.958 250.921 258.56 247.104 261.855C246.582 262.305 247.398 261.899 246.644 262.551C243.103 265.608 239.027 268.739 235.228 271.256C234.292 271.875 234.78 271.343 234.554 271.444C233.168 272.063 231.636 273.568 231.344 273.766C224.443 278.466 218.65 281.225 211.002 284.91C210.592 285.116 207.491 286.96 205.869 287.187C205.758 287.205 204.158 287.425 202.956 288.172C202.881 288.218 203.872 288.061 202.262 288.649C200.651 289.236 198.109 290.286 195.795 290.795C195.061 290.958 193.277 291.114 191.24 292.033C191.116 292.1 187.989 293.716 186.674 293.527C186.46 293.493 186.541 292.951 184.036 293.827C183.555 293.993 184.477 293.899 183.194 294.271C181.223 294.841 178.547 295.255 176.116 295.924C175.694 296.043 173.905 296.715 172.376 296.671C172.138 296.664 172.551 296.425 171.769 296.522C168.053 296.979 164.136 297.528 160.329 297.673C158.977 297.722 159.648 297.395 158.238 297.402C156.821 297.413 154.018 297.447 152.545 297.599C151.074 297.752 152.694 298.188 150.477 298.245C150.192 298.251 149.907 298.256 149.622 298.26C149.622 298.26 149.622 298.26 149.622 298.26C140.288 298.389 131.056 297.288 121.923 295.542C120.53 295.27 121.653 295.657 119.602 295.25C111.984 293.862 99.1377 290.017 93.0999 287.037C88.2599 284.721 94.553 287.139 90.8288 285.447C89.0352 284.623 86.8825 284.199 86.4422 284.01C82.1468 282.173 79.3771 280.463 75.6871 278.455C74.9269 278.037 75.5622 278.64 74.9164 278.281C72.711 277.052 70.4954 275.586 68.4615 274.29C67.5498 273.708 67.6304 273.949 66.8064 273.389C64.8383 272.047 63.1428 270.782 61.3568 269.295C61.1945 269.159 62.458 269.843 61.0441 268.798C58.7565 267.102 56.0633 264.816 53.4665 262.82C52.6971 262.226 52.4307 262.477 51.0153 260.917C50.7212 260.586 51.4133 260.649 49.3606 259.297C49.012 259.08 45.6692 256.651 44.4705 254.999C44.1505 254.567 43.4375 253.371 42.5862 252.572C42.4697 252.465 42.7776 253.052 42.0903 252.369C39.6725 249.957 37.288 247.286 34.988 244.636C34.3744 243.927 35.1228 245.123 34.2145 244.059C31.7158 241.135 28.8441 237.276 26.7499 234.155C25.977 233.004 26.6514 233.702 26.6076 233.61C25.9121 232.122 25.0776 231.533 24.7619 231.097C22.8118 228.378 21.617 226.109 20.0306 223.472C19.5947 222.742 19.7459 223.352 19.6478 223.213C18.6438 221.761 19.563 222.744 19.0454 221.759C17.5989 218.991 15.9898 215.931 14.6092 213.093C14.1047 212.053 14.4837 213.312 14.035 212.376C11.3797 206.834 9.03617 200.852 7.2825 195.127C6.95265 194.046 7.31195 194.676 7.27124 194.442C6.99092 192.826 6.01269 190.653 5.83541 190.134C5.02175 187.785 4.89778 186.806 4.34186 184.687C1.56984 174.321 0.0326192 161.091 0.00787001 150.984C-0.0025513 149.976 -0.00238082 148.982 0.0073993 148.001C0.182371 136.223 1.38339 126.646 3.87567 115.343C4.05253 114.565 3.71881 115.315 3.87092 114.644C5.85751 105.991 8.6623 97.6822 12.1519 89.5127C12.4406 88.8415 11.8961 89.7544 12.3584 88.676C13.3075 86.462 14.6113 83.7221 15.7502 81.5689C16.3044 80.5211 15.6825 81.9866 16.239 80.9322C17.5376 78.4806 18.9702 75.8797 20.3954 73.4133C21.0032 72.3653 19.9647 73.8763 20.7667 72.5202C26.2553 63.2961 32.6234 54.8107 40.1154 46.9914C40.6307 46.4566 41.2253 46.1219 42.2924 44.9629C42.3341 44.8384 42.2815 44.7967 42.274 44.7175C53.1474 33.5375 65.685 24.2412 79.485 16.9701C80.067 16.6651 79.0274 17.1296 80.1558 16.5413C86.7063 13.1471 93.2885 10.3106 100.432 7.91515C101.142 7.68143 100.802 7.87527 102.89 7.1773C103.255 7.04662 106.422 6.05333 107.239 5.81135C107.35 5.77713 106.759 5.90945 107.785 5.61491C113.764 3.90376 120.115 2.54431 126.248 1.63981C127.239 1.49435 126.187 1.67121 126.893 1.5683C131.873 0.838749 137.338 0.326563 142.168 0.134937C145.377 0.0173695 144.19 0.074475 145.901 0.035212C146.142 0.0272902 148.142 0.000994574 148.246 0.00443862C148.512 0.00415065 147.542 0.0200845 147.94 0.0189463C148.005 0.0164189 149.621 -0.00114093 149.622 0.000854492C149.622 0.000934444 149.481 0.00134579 149.119 0.00491164C149.008 0.00299842 147.063 0.0353336 146.586 0.053625C146.254 0.0640953 146.853 0.0490097 146.175 0.0709438C145.497 0.0944812 144.753 0.117176 143.634 0.173496C142.512 0.23562 143.02 0.205012 140.769 0.354837ZM280.252 219.31C279.234 220.786 279.683 221.341 280.478 219.568C280.516 219.482 280.304 219.233 280.252 219.31ZM235.798 27.3205C237.62 28.7654 238.992 29.5837 237.73 28.5329C236.46 27.4897 235.24 26.8833 235.798 27.3205ZM215.09 15.0674C217.488 16.3408 218.005 16.2719 215.371 15.0287C215.217 14.9572 214.949 14.9939 215.09 15.0674ZM137.967 0.422146C137.992 0.419202 139.424 0.318878 139.459 0.317856C140.221 0.25515 137.356 0.451188 137.967 0.422146ZM192.873 6.36758C193.671 6.63136 196.011 7.35139 195.016 6.997C194.215 6.70691 191.875 6.03218 192.873 6.36758ZM213.494 281.661C213.464 281.664 212.531 282.095 212.576 282.142C212.725 282.293 213.993 281.626 213.494 281.661ZM152.93 0.0332875C158.902 0.184365 162.548 0.54512 156.024 0.151793C154.847 0.0953874 158.56 0.267637 157.061 0.190591C154.325 0.0571685 152.498 0.0146497 149.674 0.000930006C149.164 -0.0047785 152.591 0.0176917 152.941 0.0334918C152.937 0.0334244 152.934 0.0333552 152.93 0.0332875ZM279.062 219.824C279.038 219.852 278.332 221.089 278.322 221.122C278.126 221.9 279.55 219.404 279.062 219.824ZM155.575 295.526C155.498 295.516 152.205 295.589 152.095 295.602C150.379 296.037 157.057 295.897 155.575 295.526ZM295.786 127.197C295.409 125.695 295.101 123.861 295.094 122.608C295.345 124.128 295.583 125.671 295.786 127.197Z" fill="#CCCCCC"/>
</svg>
