<svg width="297" height="297" viewBox="0 0 297 297" fill="none" xmlns="http://www.w3.org/2000/svg">
<path d="M148.227 0.00012207C163.749 0.0112078 179.229 2.4466 193.963 7.25212C253.517 25.8871 296.995 85.5888 296.04 148C297.907 226.733 226.924 297.662 148.227 295.75C69.5309 297.662 -1.45244 226.733 0.414795 148C-0.540823 85.5888 42.9372 25.8871 102.491 7.25213C117.225 2.4466 132.706 0.011206 148.227 0.00012207C132.706 -0.0221427 117.215 2.38166 102.462 7.16177C42.8328 25.6872 -0.851402 85.4245 0.0397949 148C-1.92663 226.935 69.2559 298.172 148.227 296.25C148.227 296.25 148.227 296.25 148.227 296.25C227.199 298.172 298.381 226.935 296.415 148C297.306 85.4245 253.622 25.6873 193.992 7.16177C179.24 2.38166 163.749 -0.0221409 148.227 0.00012207Z" fill="#CCCCCC"/>
</svg>
