<svg width="305" height="303" viewBox="0 0 305 303" fill="none" xmlns="http://www.w3.org/2000/svg">
<path d="M144.071 0.5436C138.876 0.999918 132.153 1.99924 127.08 3.03911C125.494 3.36218 126.288 3.14862 125.195 3.37477C123.067 3.82048 121.077 4.32571 118.988 4.84944C118.295 5.02322 119.134 4.7082 118.408 4.89192C114.429 5.90253 110.716 7.06995 106.783 8.43411C87.4349 15.1519 69.8393 25.6799 54.6691 39.6675C49.6589 44.2648 43.8201 50.1623 39.5539 55.7541C39.0559 56.4053 39.5687 56.1918 39.4892 56.328C38.256 58.4656 38.3283 57.4851 37.3019 58.7106C33.2429 63.5822 29.323 69.4883 26.4353 74.8597C25.2133 77.1491 27.0064 75.1779 25.4538 77.2956C25.3468 77.4437 25.3723 76.7042 25.0018 77.3131C24.1544 78.6933 22.8133 81.4412 22.2449 82.5571C21.142 84.7036 20.9775 85.066 20.0344 87.1399C18.7492 89.9798 17.1777 93.3406 16.1023 96.5158C15.8748 97.1936 16.5476 96.4367 16.2218 97.5288C15.8907 98.6177 14.9041 101.447 14.517 102.389C14.1242 103.327 13.9671 102.823 13.8468 102.973C12.8249 104.213 12.6428 107.795 12.5576 108.232C10.7676 116.192 9.02218 122.989 8.15003 130.601C7.50316 136.343 7.37506 142.491 7.40234 148.003C7.40249 148.049 7.40266 148.095 7.40283 148.14C7.44203 154.741 7.59068 160.309 8.47056 166.666C8.56532 167.334 9.01201 166.48 9.13105 167.292C10.4105 175.928 12.3282 184.374 14.67 192.757C14.9062 193.599 14.0549 192.69 14.2622 193.544C15.4818 198.75 17.8066 207.129 21.3368 208.988C22.7821 212.294 24.7279 216.216 25.9159 219.269C26.6862 221.238 25.1442 219.778 26.6665 221.876C27.012 222.347 27.0814 221.431 27.5656 222.153C29.6049 225.192 31.6419 228.631 33.9621 231.421C34.4346 231.986 34.7121 231.544 34.9035 231.662C36.4817 232.666 37.2894 235.662 37.6181 236.22C40.0798 240.426 42.5773 242.979 45.6098 246.306C46.3175 247.076 45.966 245.722 46.664 246.442C50.2804 250.178 54.1198 253.939 57.78 257.495C58.5947 258.287 57.4266 258.042 57.7981 258.443C59.4544 260.206 60.5635 259.705 62.1988 261.32C62.5467 261.659 62.024 261.877 62.0592 261.974C62.6136 263.509 64.3211 263.287 64.6173 263.478C68.4135 265.887 70.0422 268.58 73.8096 270.808C74.2607 271.07 73.6171 269.904 74.8626 270.668C83.1651 275.746 92.289 280.495 101.146 284.388C102.526 284.991 101.35 285.071 101.417 285.16C102.546 286.587 103.92 285.734 104.395 285.851C108.143 286.806 111.322 288.864 114.258 288.104C126.809 291.981 139.884 293.243 152.914 293.742C152.914 293.742 152.914 293.742 152.914 293.742C156.15 293.865 159.327 293.945 162.576 294.004C162.785 294.006 162.454 294.657 162.87 294.659C167.885 294.637 166.841 293.721 169.97 292.185C170.749 291.799 173.42 292.897 173.66 292.964C174.52 293.234 173.817 294.277 174.098 294.313C176.428 294.564 175.611 291.581 178.575 291.07C178.669 291.058 178.377 291.686 178.637 291.697C179.447 291.733 180.176 291.369 180.971 291.414C182.781 291.516 183.741 292.855 186.213 291.4C186.521 291.209 185.627 289.644 188.257 289.086C189.307 288.881 193.902 287.594 195.198 287.297C196.504 287.017 195.795 287.818 195.892 287.814C199.565 287.441 198.351 288.137 200.434 288.601C202.527 289.039 201.194 286.744 201.793 286.228C202.391 285.718 205.09 285.37 205.779 285.325C206.466 285.287 205.831 285.912 206.418 285.812C210.311 285.112 207.518 283.993 208.534 283.14C210.894 281.116 213.778 281.927 216.344 280.912C217.034 280.638 216.3 280.508 216.877 280.184C219.155 278.902 220.833 278.716 223.185 276.821C223.577 276.51 225.101 274.36 226.852 274.299C227.103 274.291 226.803 275.017 227.815 274.542C229.328 273.839 231.943 272.335 233.351 271.22C234.391 270.398 232.704 270.585 234.217 269.871C234.889 269.55 234.005 270.687 235.248 270.049C236.494 269.419 239.374 267.358 240.44 266.538C241.51 265.724 240.57 265.696 240.634 265.6C241.03 265.033 242.892 263.252 243.067 263.11C251.979 256.039 260.228 249.244 267.053 240.378C267.586 239.683 266.76 239.767 266.837 239.657C268.51 237.173 268.265 239.992 269.977 238.655C268.848 238.164 269.79 237.325 270.95 235.553C271.505 234.698 270.806 234.871 270.823 234.769C271.156 233.152 272.487 232.826 272.795 232.709C273.926 232.281 273.893 230.931 274.647 230.622C275.398 230.307 275.063 231.984 276.197 230.285C276.165 229.579 274.417 230.218 275.122 228.845C277.853 223.727 283.828 214.733 285.825 210.486C287.874 206.309 288.362 204.873 289.519 202.418C291.549 197.942 290.175 199.334 290.881 196.378C291.552 193.402 292.834 195.389 293.359 195.103C293.878 194.818 293.635 194.237 294.011 193.791C294.386 193.344 294.287 194.544 294.754 193.355C295.232 192.159 295.529 188.632 295.244 188.088C294.651 186.94 293.366 188.193 294.544 185.074C294.611 184.894 294.919 185.617 295.152 184.919C296.981 179.393 298.179 173.425 299.263 167.693C299.412 166.903 299.826 167.681 299.918 167.221C300.829 162.406 299.756 164.022 299.08 161.305C300.271 162.012 301.213 160.625 301.44 156.893C301.565 154.646 300.999 155.019 300.679 153.567C300.583 153.135 300.996 151.573 300.749 151.281C299.941 150.324 299.019 151.788 299.421 148.003C299.421 148.002 299.422 148 299.422 147.998C299.428 147.94 299.487 147.968 299.563 148.003C299.662 148.05 299.789 148.11 299.86 148.003C299.888 147.961 299.907 147.892 299.912 147.786C300.069 144.048 299.22 143.633 298.943 139.653C298.729 136.521 298.729 130.927 298.296 127.366C299.584 127.269 298.786 123.928 297.69 122.724C297.337 120.422 296.811 117.979 296.439 115.749C296.31 114.984 296.766 115.402 296.783 115.299C297.037 113.697 295.997 112.9 295.849 112.422C294.25 107.214 293.52 102.775 291.244 98.0674C291.16 97.9002 290.325 97.8932 290.386 96.3897C290.39 96.2909 291.328 97.7771 290.496 95.4726C289.674 93.1716 288.285 88.7331 286.524 85.7973C286.102 85.0844 284.68 83.4707 284.35 81.7717C284.306 81.5444 284.603 81.6674 284.562 81.3274C284.421 80.2297 283.513 80.064 283.491 78.6941C283.469 77.3288 282.633 74.838 280.5 72.0867C280.432 71.9978 279.539 71.5848 278.981 70.6569C278.092 69.1742 276.861 67.048 275.849 65.5546C275.364 64.8394 275.4 65.4827 275.311 65.3618C271.901 60.6706 269.665 57.1933 265.746 52.3539C265.025 51.4643 262.582 49.2604 261.305 47.4371C259.883 45.446 262.66 46.2614 258.448 42.5124C256.715 41.0186 253.552 40.2312 251.094 36.9283C245.079 31.8946 239.485 27.2121 232.714 23.1747C232.409 22.9931 231.275 22.6949 230.574 22.2522C229.531 21.5944 229.035 21.1085 228.284 20.6496C225.132 18.7284 222.102 17.2248 218.933 15.6107C217.727 15.0029 218.213 15.0811 216.764 14.3751C215.312 13.679 214.268 13.3835 212.305 12.4247C210.819 11.7022 209.431 10.7549 207.397 9.92897C207.202 10.1955 205.807 9.62445 203.268 8.78672C202.781 8.62677 203.263 8.90901 203.031 8.83809C202.088 8.5505 201.253 8.17042 200.348 7.91905C200.128 7.85768 200.088 7.94324 199.907 7.89796C198.367 7.50722 195.936 6.52701 195.516 6.37333C193.908 5.75821 193.103 5.64402 191.842 5.24716C190.58 4.85861 192.501 5.31677 191.018 4.89226C187.951 4.01768 183.929 3.128 180.751 2.53679C179.481 2.30081 180.334 2.53313 180.152 2.50104C177.525 2.02307 174.844 1.56063 173.37 1.46876C171.57 0.95346 171.778 1.25378 167.973 0.784788C167.677 0.75028 167.301 0.617594 168.457 0.713568C169.615 0.809311 171.358 1.03787 172.951 1.216C173.329 1.25672 175.497 1.41729 175.797 1.452C178.123 1.71379 178.403 2.02382 178.523 2.0562C179.877 2.43321 182.51 2.75911 183.205 2.88348C186.377 3.45386 189.002 4.1187 191.625 4.74336C193.335 5.15595 193.571 4.95557 194.901 5.32767C199.315 6.59325 200.702 7.51375 204.909 8.59068C205.811 8.83296 205.084 8.15355 208.101 9.59327C208.296 9.67968 210.482 10.8361 211.874 11.2263C212.049 11.274 212.091 11.1636 212.314 11.2455C213.808 11.7981 214.742 12.3059 216.339 12.9719C217.932 13.6369 219.861 14.4592 221.609 15.3813C222.667 15.9346 223.896 16.8681 224.368 17.1952C225.698 18.1155 227.361 18.6816 228.107 19.3802C228.852 20.0898 226.983 19.4125 229.158 20.8802C229.445 20.5902 229.848 20.3548 230.192 20.0912C235.191 23.0252 239.858 26.3051 244.511 29.7898C245.088 30.2222 244.657 29.5757 245.28 30.0349C247.908 31.9783 250.006 33.9199 252.621 36.075C254.645 37.7434 256.986 39.4616 259.031 41.3128C259.805 42.9159 262.827 45.6524 264.784 47.88C265.47 48.658 265.288 48.7268 265.737 49.3128C267.417 51.5321 267.008 50.1684 267.586 50.6785C270.056 52.8964 269.164 53.989 271.57 56.9793C271.697 57.1348 273.84 58.6466 274.087 58.8962C275.662 60.459 274.087 59.3451 274.856 60.4779C276.25 62.5544 277.088 64.0796 278.916 66.3834C279.448 67.0536 281.017 68.4999 281.553 70.1258C281.623 70.3388 281.321 70.3804 281.399 70.538C282.822 73.386 283.613 73.0222 284.804 74.4537C285.999 75.8913 286.795 78.6667 286.893 79.2585C287.169 80.8003 286.177 78.3361 286.093 78.2886C285.155 77.7084 286.214 79.4613 286.882 80.8754C286.178 81.4831 287.19 83.406 287.573 82.342C287.614 82.2216 286.989 81.1725 286.882 80.8754C288.304 81.6952 289.524 83.8146 289.852 86.5818C289.995 87.8796 289.107 86.9888 290.759 90.3729C291.494 91.9125 291.849 91.054 292.596 92.3861C294.311 95.4446 295.269 99.8817 296.446 103.257C296.874 104.478 296.856 103.165 297.161 103.997C297.971 106.211 298.273 108.288 299.03 110.541C299.099 110.744 299.362 110.136 299.556 110.846C301.028 116.244 301.769 121.082 302.64 126.854C303.074 129.636 303.896 134.636 304.058 137.563C304.266 140.854 304.139 144.569 304.003 148.003C303.93 149.898 303.859 151.678 303.879 153.216C303.901 156.032 304.384 155.431 304.657 156.669C305.195 159.073 303.735 163.117 303.493 163.641C303.489 163.654 303.585 161.233 303.228 162.496C302.648 163.192 303.493 163.611 303.493 163.641C303.363 164.002 302.712 168.817 302.653 169.777C302.633 170.302 303.133 170.079 303.114 170.352C302.632 176.882 301.449 183.357 299.473 189.702C299.432 189.812 298.956 189.494 298.867 189.753C297.606 193.358 297.495 195.9 296.851 199.036C296.198 202.167 295.154 204.504 293.564 205.866C292.794 208.125 291.024 211.1 289.953 212.755C288.886 214.412 289.756 215.149 289.702 215.316C287.948 220.505 285.883 222.99 282.914 227.748C281.505 230.021 278.746 234.548 277.155 236.98C275.911 238.909 274.872 239.854 273.729 241.639C273.574 241.881 274.16 241.97 274.123 242.052C273.167 244.312 272.861 242.62 272.384 242.863C270.644 243.729 269.641 244.285 268.004 246.824C267.63 247.405 267.697 250.159 266.92 251.188C265.912 252.516 265.843 251.602 264.787 252.987C264.695 253.104 265.019 253.366 264.271 254.136C260.803 257.715 256.726 261.305 252.846 264.717C252.314 265.182 253.434 265.095 252.668 265.777C249.075 268.974 244.88 272.202 240.867 274.631C239.878 275.227 240.201 274.423 239.916 274.451C238.185 274.624 237.076 276.846 236.782 277.065C229.911 282.251 223.613 284.449 215.933 288.564C215.528 288.792 212.681 291.519 210.723 291.051C210.587 291.024 208.663 290.524 207.625 291.791C207.559 291.87 208.721 292.082 207.052 292.652C205.384 293.219 202.852 294.562 200.337 294.667C199.536 294.705 197.486 294.115 195.577 295.659C195.471 295.767 192.616 298.802 191.016 297.666C190.755 297.476 190.588 295.915 188.15 297.331C187.681 297.602 188.68 297.729 187.396 298.253C185.417 299.059 182.615 299.214 180.196 300.359C179.779 300.562 178.043 301.953 176.382 301.382C176.124 301.292 176.497 300.703 175.688 300.765C171.843 301.054 167.84 301.851 163.909 301.763C162.514 301.729 163.166 300.832 161.716 300.69C160.258 300.551 157.397 300.441 155.899 300.853C154.398 301.268 156.074 302.61 153.793 302.74C153.5 302.756 153.207 302.769 152.914 302.781C152.914 302.781 152.914 302.781 152.914 302.781C143.292 303.168 133.807 301.533 124.447 299.656C123.017 299.364 124.113 300.077 121.999 299.662C114.162 298.252 100.8 294.532 94.8485 290.83C90.0948 287.95 96.6917 290.06 92.975 288.123C91.1937 287.187 88.5721 287.683 88.1039 287.515C83.5577 285.913 80.921 283.747 77.0794 281.801C76.2864 281.395 76.7341 282.373 76.0613 282.019C73.7598 280.808 71.5799 279.138 69.4766 277.828C68.5329 277.24 68.4452 277.748 67.6115 277.149C65.6192 275.715 63.9507 274.297 62.2925 272.529C62.1426 272.369 63.6603 272.761 62.2244 271.675C59.8984 269.911 57.3319 267.345 54.4958 265.521C53.6549 264.98 52.9253 265.766 51.7942 263.794C51.5593 263.377 52.8231 262.816 50.2471 261.967C49.8159 261.84 45.725 260.034 44.9329 257.88C44.7199 257.316 44.4747 255.608 43.5331 254.866C43.4021 254.767 43.4506 255.629 42.7235 254.952C40.1692 252.553 37.7658 249.778 35.3333 247.124C34.6832 246.414 35.1575 247.89 34.2028 246.814C31.5752 243.853 28.7166 239.804 26.6786 236.52C25.927 235.308 26.8673 235.853 26.85 235.738C26.5923 233.901 25.1371 233.711 24.7793 233.283C22.5804 230.62 21.6549 228.098 19.9673 225.433C19.504 224.693 19.3587 225.492 19.2324 225.364C17.9511 224.014 19.4226 224.722 18.9563 223.674C17.6564 220.732 16.0036 217.604 14.5677 214.705C14.0424 213.643 14.0713 215.107 13.6079 214.148C10.8578 208.463 8.52829 202.273 6.97037 196.322C6.678 195.198 7.31705 195.756 7.33996 195.495C7.50483 193.699 5.91825 191.664 5.68333 191.143C4.60626 188.807 4.73037 187.732 4.13186 185.571C1.146 174.981 -0.146814 161.37 0.01329 151.051C0.0210544 150.02 0.0402147 149.005 0.0695612 148.003C0.484602 135.974 1.98518 126.257 4.5738 114.767C4.75802 113.976 4.10734 114.669 4.26276 113.985C6.31199 105.16 9.3739 96.7574 12.9464 88.4513C13.2431 87.7687 12.4329 88.5901 12.9015 87.4888C13.862 85.2268 15.244 82.4541 16.5061 80.3105C17.1193 79.2676 16.663 80.8479 17.2733 79.7974C18.6964 77.3557 20.1956 74.7392 21.6393 72.2312C22.2551 71.1651 20.9646 72.5652 21.796 71.1946C27.478 61.8692 34.0725 53.31 41.9698 45.6675C42.5136 45.1447 43.4216 45.0936 44.4542 43.8804C44.4158 43.6771 44.2668 43.5428 44.1727 43.3794C55.3023 32.1584 68.199 23.0449 82.2166 15.9285C82.8083 15.6304 81.6857 15.9602 82.8341 15.3855C89.4973 12.0679 96.1774 9.30365 103.439 7.10482C104.159 6.89026 103.873 7.24171 105.97 6.54357C106.337 6.41255 109.526 5.43712 110.341 5.17556C110.452 5.13834 109.835 5.19467 110.87 4.91356C116.905 3.28147 123.311 2.0437 129.478 1.25887C130.476 1.13254 129.424 1.33422 130.134 1.24436C135.138 0.599823 140.617 0.14703 145.454 0.0367551C148.667 -0.0310132 147.48 0.0285603 149.192 0.0145125C149.433 0.00972566 151.434 -0.00439638 151.538 0.00140601C151.804 0.00606585 150.834 0.0335408 151.232 0.0387335C151.296 0.0368587 152.913 0.00120519 152.914 0.00317383C152.913 0.00327629 152.773 0.00520953 152.411 0.0136742C152.299 0.0129582 150.355 0.0720366 149.879 0.100438C149.547 0.117945 150.145 0.098441 149.468 0.134695C148.791 0.173546 148.047 0.202312 146.929 0.283042C145.81 0.370912 146.317 0.344808 144.071 0.5436ZM284.943 220.078C283.605 221.396 285.208 222.605 285.735 220.647C285.758 220.551 285.011 220.008 284.943 220.078ZM239.415 26.8686C241.109 28.501 242.702 29.0323 241.538 27.8364C240.359 26.6507 238.892 26.3758 239.415 26.8686ZM218.511 14.8062C220.852 16.2022 221.645 15.6026 218.934 14.4824C218.776 14.4179 218.373 14.7259 218.511 14.8062ZM141.254 0.363135C141.278 0.361342 142.712 0.269118 142.747 0.267422C143.508 0.189621 140.64 0.363446 141.254 0.363135ZM196.194 6.27301C196.977 6.58538 199.339 7.24289 198.363 6.8263C197.576 6.48829 195.212 5.87983 196.194 6.27301ZM216.874 281.848C216.835 281.832 215.893 282.246 215.99 282.404C216.308 282.916 217.534 282.144 216.874 281.848ZM156.222 0.0279893C162.196 0.153294 165.834 0.618422 159.314 0.184007C158.138 0.123001 161.85 0.291584 160.352 0.204905C157.617 0.0638432 155.789 0.0307276 152.965 0.0033826C152.456 -0.000144905 155.882 0.0169292 156.233 0.0281344C156.229 0.0280868 156.225 0.0280373 156.222 0.0279893ZM282.36 219.831C282.322 219.85 281.601 221.079 281.606 221.121C281.775 222.109 283.232 219.621 282.36 219.831ZM158.838 294.813C158.759 294.762 155.483 294.795 155.374 294.846C153.67 296.058 160.353 295.999 158.838 294.813ZM298.322 127.306C297.617 125.857 297.285 124.049 297.691 122.731C297.915 124.248 298.145 125.784 298.322 127.306Z" fill="#CCCCCC"/>
</svg>
