<svg width="316" height="166" viewBox="0 0 316 166" fill="none" xmlns="http://www.w3.org/2000/svg">
<path d="M173 72.3225C173.331 79.507 174.767 86.5688 177.239 93.2042C186.934 120.036 214.219 138.144 241.5 137.073C275.973 136.968 305.782 106.06 305 72.3225C305.782 38.5847 275.973 7.67716 241.5 7.57251C214.219 6.50091 186.934 24.6092 177.239 51.4408C174.767 58.0762 173.331 65.138 173 72.3225C172.664 65.139 173.468 57.8663 175.432 50.854C182.937 22.523 210.933 0.289343 241.5 0.0725098C280.002 -1.8065 315.992 33.0857 315 72.3225C315.992 111.559 280.002 146.452 241.5 144.573C210.933 144.356 182.937 122.122 175.432 93.791C173.468 86.7787 172.664 79.506 173 72.3225Z" fill="#CCCCCC"/>
<path d="M34.8725 84.9265C38.6485 84.9265 42.2645 85.5985 45.7205 86.9425C49.2405 88.2225 52.1845 89.9505 54.5525 92.1265C56.9845 94.3025 58.4245 96.6385 58.8725 99.1345C59.1925 100.799 58.9685 102.655 58.2005 104.703C57.4325 106.687 56.2165 108.447 54.5525 109.983C52.8885 111.455 50.8725 112.255 48.5045 112.383C47.6725 112.383 46.6165 112.287 45.3365 112.095C44.0565 111.903 42.8085 111.519 41.5925 110.943C40.4405 110.367 39.5125 109.535 38.8085 108.447C39.7685 107.935 40.4085 107.391 40.7285 106.815C41.0485 106.239 41.1445 105.663 41.0165 105.087C40.7605 103.807 39.9925 102.751 38.7125 101.919C37.4965 101.087 35.9925 100.575 34.2005 100.383C33.1765 100.255 31.9925 100.287 30.6485 100.479C29.3045 100.607 28.0565 101.055 26.9045 101.823C25.8165 102.527 25.0485 103.711 24.6005 105.375C24.3445 106.335 24.3765 107.391 24.6965 108.543C25.0805 109.631 25.9765 110.687 27.3845 111.711C28.7925 112.671 30.9365 113.503 33.8165 114.207C38.2325 115.231 42.3285 116.351 46.1045 117.567C49.9445 118.783 53.3045 120.287 56.1845 122.079C59.0645 123.871 61.2725 126.111 62.8085 128.799C64.4085 131.423 65.1445 134.719 65.0165 138.687C64.9525 141.311 64.2485 144.063 62.9045 146.943C61.5605 149.823 59.6085 152.511 57.0485 155.007C54.4885 157.439 51.3525 159.423 47.6405 160.959C43.9285 162.495 39.7045 163.263 34.9685 163.263C31.9605 163.263 28.8565 163.007 25.6565 162.495C22.4565 161.983 19.4165 161.183 16.5365 160.095C13.7205 159.007 11.2245 157.567 9.0485 155.775C7.1285 154.111 5.7525 152.031 4.9205 149.535C4.1525 147.039 3.9925 144.543 4.4405 142.047C4.8885 139.487 6.0085 137.311 7.8005 135.519C9.6565 133.727 12.2165 132.735 15.4805 132.543C14.8405 134.463 15.1925 136.351 16.5365 138.207C17.9445 139.999 20.0245 141.535 22.7765 142.815C25.5285 144.031 28.5365 144.767 31.8005 145.023C35.1925 145.279 38.1365 145.151 40.6325 144.639C43.1925 144.127 44.6005 143.071 44.8565 141.471C45.1765 139.551 44.7925 138.015 43.7045 136.863C42.6165 135.711 41.1125 134.847 39.1925 134.271C37.2725 133.631 35.1925 133.119 32.9525 132.735C30.7125 132.287 28.6325 131.839 26.7125 131.391C24.1525 130.687 21.5605 129.791 18.9365 128.703C16.3765 127.551 14.0085 126.111 11.8325 124.383C9.7205 122.655 7.9925 120.543 6.6485 118.047C5.3045 115.551 4.6005 112.639 4.5365 109.311C4.4725 105.407 5.2725 101.951 6.9365 98.9425C8.6005 95.8705 10.8725 93.3105 13.7525 91.2625C16.6325 89.1505 19.8965 87.5825 23.5445 86.5585C27.2565 85.4705 31.0325 84.9265 34.8725 84.9265ZM131.074 143.775C131.842 145.631 132.93 147.423 134.338 149.151C135.746 150.815 136.962 152.063 137.986 152.895C136.45 156.095 134.562 158.431 132.322 159.903C130.466 161.119 128.482 161.823 126.37 162.015C125.218 162.143 123.906 162.047 122.434 161.727C120.962 161.407 119.426 160.511 117.826 159.039C116.29 157.503 114.754 155.071 113.218 151.743C112.77 150.655 111.778 149.887 110.242 149.439C108.706 148.991 107.074 148.735 105.346 148.671C103.618 148.543 102.21 148.479 101.122 148.479C100.034 148.479 98.6903 148.511 97.0903 148.575C95.5543 148.639 94.1463 148.895 92.8663 149.343C91.5863 149.791 90.8183 150.591 90.5623 151.743C90.3063 152.767 90.2743 153.823 90.4663 154.911C90.6583 155.999 91.0743 156.703 91.7143 157.023C90.6263 158.047 89.5383 158.943 88.4503 159.711C87.4263 160.479 86.3703 161.087 85.2823 161.535C83.9383 162.111 82.5303 162.399 81.0583 162.399C79.6503 162.399 78.0503 162.079 76.2583 161.439C75.4263 161.119 74.5623 160.543 73.6663 159.711C72.7703 158.879 72.1623 157.727 71.8423 156.255C71.5223 154.783 71.7783 152.927 72.6103 150.687C72.6743 150.495 72.9943 149.471 73.5703 147.615C74.1463 145.759 74.8823 143.327 75.7783 140.319C76.7383 137.247 77.7623 133.855 78.8503 130.143C80.0023 126.431 81.1543 122.623 82.3063 118.719C83.5223 114.751 84.6743 110.943 85.7623 107.295C86.9143 103.647 87.9383 100.351 88.8343 97.4065C89.7303 94.4625 90.4343 92.1265 90.9463 90.3985C91.4583 88.6705 91.7143 87.8065 91.7143 87.8065C92.2903 87.4865 93.3463 87.1025 94.8823 86.6545C96.4823 86.1425 98.1783 85.8545 99.9703 85.7905C101.954 85.6625 103.874 85.9185 105.73 86.5585C107.65 87.1985 109.122 88.4785 110.146 90.3985C110.594 91.1665 111.266 92.6385 112.162 94.8145C113.058 96.9905 114.114 99.6145 115.33 102.687C116.546 105.759 117.826 109.055 119.17 112.575C120.514 116.031 121.826 119.487 123.106 122.943C124.45 126.335 125.666 129.503 126.754 132.447C127.842 135.391 128.77 137.887 129.538 139.935C130.306 141.919 130.818 143.199 131.074 143.775ZM100.834 131.391C102.498 131.263 103.458 130.783 103.714 129.951C104.034 129.119 104.226 128.159 104.29 127.071C104.29 126.367 104.162 125.503 103.906 124.479C103.714 123.455 103.394 122.559 102.946 121.791C102.562 120.959 102.05 120.543 101.41 120.543C100.514 120.543 99.5223 121.183 98.4343 122.463C97.4103 123.679 96.8343 124.927 96.7063 126.207C96.5143 127.423 96.6103 128.607 96.9943 129.759C97.4423 130.911 98.7223 131.455 100.834 131.391ZM193.751 84.5425C194.519 85.1825 195.063 86.4305 195.383 88.2865C195.767 90.1425 195.927 92.1585 195.863 94.3345C195.799 96.4465 195.479 98.3665 194.903 100.095C194.327 101.759 193.495 102.751 192.407 103.071C191.959 103.199 191.031 103.391 189.623 103.647C188.279 103.839 187.031 104.095 185.879 104.415C184.791 104.735 183.351 105.279 181.559 106.047C179.767 106.815 178.231 107.935 176.951 109.407C175.927 110.623 175.095 111.903 174.455 113.247C173.815 114.527 173.463 116.191 173.399 118.239C173.335 119.071 173.303 120.639 173.303 122.943C173.303 125.183 173.303 127.807 173.303 130.815C173.303 133.759 173.303 136.671 173.303 139.551C173.367 142.431 173.399 144.895 173.399 146.943C173.399 148.991 173.399 150.207 173.399 150.591C173.335 152.511 173.527 154.143 173.975 155.487C174.423 156.831 174.903 157.631 175.415 157.887C173.815 159.103 172.215 160.127 170.615 160.959C169.079 161.791 166.871 162.399 163.991 162.783C162.903 162.911 161.687 162.591 160.343 161.823C158.999 161.119 157.815 159.999 156.791 158.463C155.831 156.863 155.319 154.911 155.255 152.607C155.255 150.303 155.223 147.359 155.159 143.775C155.159 140.127 155.159 136.191 155.159 131.967C155.223 127.679 155.223 123.391 155.159 119.103C155.095 117.247 154.807 115.487 154.295 113.823C153.847 112.159 153.079 110.719 151.991 109.503C150.903 108.223 149.463 107.167 147.671 106.335C145.879 105.503 143.639 104.959 140.951 104.703C140.247 104.639 139.287 104.447 138.071 104.127C136.855 103.807 136.023 103.487 135.575 103.167C134.871 102.655 134.295 101.695 133.847 100.287C133.399 98.8145 133.047 97.2145 132.791 95.4865C132.535 93.6945 132.343 91.9345 132.215 90.2065C132.151 88.4785 132.151 87.0705 132.215 85.9825C132.471 86.0465 133.175 86.1425 134.327 86.2705C135.543 86.3985 136.983 86.5265 138.647 86.6545C140.311 86.7185 141.943 86.7825 143.543 86.8465C144.695 86.9105 146.231 86.9745 148.151 87.0385C150.135 87.1025 152.247 87.1665 154.487 87.2305C156.727 87.2945 158.839 87.3585 160.823 87.4225C162.807 87.4225 164.439 87.4225 165.719 87.4225C167.447 87.3585 169.463 87.2945 171.767 87.2305C174.071 87.1665 176.279 87.1025 178.391 87.0385C180.567 86.9105 182.295 86.7825 183.575 86.6545C184.855 86.5265 186.199 86.3665 187.607 86.1745C189.079 85.9185 190.359 85.6625 191.447 85.4065C192.599 85.0865 193.367 84.7985 193.751 84.5425ZM259.719 94.7185C259.847 96.1905 260.007 98.5905 260.199 101.919C260.455 105.183 260.647 108.959 260.775 113.247C260.903 117.535 260.935 121.951 260.871 126.495C260.871 130.975 260.711 135.231 260.391 139.263C260.135 143.295 259.655 146.655 258.951 149.343C257.799 153.759 254.599 157.151 249.351 159.519C244.103 161.887 237.511 163.071 229.575 163.071C224.263 163.071 219.751 162.079 216.039 160.095C212.327 158.111 209.447 155.391 207.399 151.935C205.415 148.415 204.295 144.383 204.039 139.839C203.911 137.599 203.815 134.751 203.751 131.295C203.687 127.775 203.623 123.999 203.559 119.967C203.559 115.871 203.559 111.839 203.559 107.871C203.559 103.903 203.559 100.287 203.559 97.0225C203.623 93.6945 203.655 91.0385 203.655 89.0545C203.655 87.0705 203.655 86.0785 203.655 86.0785C204.359 85.9505 205.575 85.9185 207.303 85.9825C209.095 86.0465 210.951 86.3345 212.871 86.8465C215.047 87.3585 217.031 88.2225 218.823 89.4385C220.679 90.6545 221.735 92.4145 221.991 94.7185C222.183 96.6385 222.183 99.5185 221.991 103.359C221.863 107.135 221.735 111.487 221.607 116.415C221.543 121.279 221.671 126.335 221.991 131.583C222.055 132.671 222.087 133.919 222.087 135.327C222.087 136.735 222.279 138.111 222.663 139.455C223.111 140.799 223.975 141.919 225.255 142.815C226.599 143.711 228.647 144.159 231.399 144.159C234.151 144.159 236.231 143.775 237.639 143.007C239.111 142.239 240.167 141.183 240.807 139.839C241.447 138.495 241.831 136.927 241.959 135.135C242.151 133.343 242.311 131.423 242.439 129.375C242.567 128.031 242.599 126.047 242.535 123.423C242.535 120.799 242.503 117.855 242.439 114.591C242.375 111.327 242.279 108.031 242.151 104.703C242.023 101.375 241.895 98.3025 241.767 95.4865C241.639 92.6705 241.543 90.3985 241.479 88.6705C241.415 86.9425 241.383 86.0785 241.383 86.0785C242.087 85.9505 243.303 85.9185 245.031 85.9825C246.823 86.0465 248.711 86.3345 250.695 86.8465C252.871 87.3585 254.855 88.2545 256.647 89.5345C258.439 90.7505 259.463 92.4785 259.719 94.7185Z" fill="#E10000"/>
<path d="M41.826 121.439C42.13 121.695 42.378 121.959 42.57 122.231C42.762 122.487 42.898 122.839 42.978 123.287C43.058 123.719 43.082 124.327 43.05 125.111C43.034 125.495 42.962 125.943 42.834 126.455C42.722 126.967 42.522 127.487 42.234 128.015C41.946 128.543 41.546 129.031 41.034 129.479C40.522 129.927 39.874 130.295 39.09 130.583C38.306 130.871 37.346 131.015 36.21 131.015H35.73C35.17 130.983 34.498 130.967 33.714 130.967C32.93 130.983 32.202 130.991 31.53 130.991C31.13 131.023 30.706 131.039 30.258 131.039C29.81 131.039 29.402 131.015 29.034 130.967C28.666 130.919 28.394 130.847 28.218 130.751C28.33 130.527 28.426 130.191 28.506 129.743C28.602 129.279 28.674 128.775 28.722 128.231C28.77 127.687 28.786 127.167 28.77 126.671C28.77 126.543 28.762 126.223 28.746 125.711C28.746 125.183 28.738 124.535 28.722 123.767C28.722 122.983 28.714 122.135 28.698 121.223C28.698 120.311 28.698 119.399 28.698 118.487C28.698 117.543 28.69 116.735 28.674 116.063C28.658 115.391 28.506 114.975 28.218 114.815C27.946 114.639 27.706 114.295 27.498 113.783C27.306 113.255 27.21 112.575 27.21 111.743C27.274 111.759 27.474 111.783 27.81 111.815C28.146 111.831 28.466 111.855 28.77 111.887C29.138 111.903 29.658 111.919 30.33 111.935C31.018 111.935 31.73 111.935 32.466 111.935C33.026 111.935 33.586 111.935 34.146 111.935C34.706 111.935 35.21 111.943 35.658 111.959C36.122 111.959 36.458 111.959 36.666 111.959C37.658 111.959 38.53 112.143 39.282 112.511C40.034 112.863 40.626 113.335 41.058 113.927C41.49 114.519 41.706 115.167 41.706 115.871C41.706 116.575 41.594 117.191 41.37 117.719C41.162 118.247 40.954 118.695 40.746 119.063C40.538 119.415 40.442 119.695 40.458 119.903C40.506 120.239 40.658 120.503 40.914 120.695C41.186 120.887 41.49 121.135 41.826 121.439ZM36.978 117.239C37.01 117.031 36.914 116.839 36.69 116.663C36.482 116.471 36.194 116.319 35.826 116.207C35.474 116.079 35.098 116.015 34.698 116.015C34.298 116.015 33.994 116.119 33.786 116.327C33.578 116.535 33.442 116.783 33.378 117.071C33.314 117.343 33.298 117.575 33.33 117.767C33.378 118.071 33.602 118.287 34.002 118.415C34.418 118.527 34.81 118.591 35.178 118.607C35.546 118.623 35.922 118.527 36.306 118.319C36.69 118.095 36.914 117.735 36.978 117.239ZM36.018 126.359C36.594 126.343 37.026 126.255 37.314 126.095C37.618 125.935 37.826 125.727 37.938 125.471C38.05 125.215 38.122 124.959 38.154 124.703C38.202 124.351 38.098 124.047 37.842 123.791C37.586 123.519 37.234 123.311 36.786 123.167C36.338 123.023 35.842 122.959 35.298 122.975C34.754 122.975 34.33 123.095 34.026 123.335C33.722 123.575 33.514 123.855 33.402 124.175C33.29 124.479 33.242 124.751 33.258 124.991C33.306 125.327 33.562 125.647 34.026 125.951C34.49 126.239 35.154 126.375 36.018 126.359ZM59.8311 126.311C60.0231 126.775 60.2951 127.223 60.6471 127.655C60.9991 128.071 61.3031 128.383 61.5591 128.591C61.1751 129.391 60.7031 129.975 60.1431 130.343C59.6791 130.647 59.1831 130.823 58.6551 130.871C58.3671 130.903 58.0391 130.879 57.6711 130.799C57.3031 130.719 56.9191 130.495 56.5191 130.127C56.1351 129.743 55.7511 129.135 55.3671 128.303C55.2551 128.031 55.0071 127.839 54.6231 127.727C54.2391 127.615 53.8311 127.551 53.3991 127.535C52.9671 127.503 52.6151 127.487 52.3431 127.487C52.0711 127.487 51.7351 127.495 51.3351 127.511C50.9511 127.527 50.5991 127.591 50.2791 127.703C49.9591 127.815 49.7671 128.015 49.7031 128.303C49.6391 128.559 49.6311 128.823 49.6791 129.095C49.7271 129.367 49.8311 129.543 49.9911 129.623C49.7191 129.879 49.4471 130.103 49.1751 130.295C48.9191 130.487 48.6551 130.639 48.3831 130.751C48.0471 130.895 47.6951 130.967 47.3271 130.967C46.9751 130.967 46.5751 130.887 46.1271 130.727C45.9191 130.647 45.7031 130.503 45.4791 130.295C45.2551 130.087 45.1031 129.799 45.0231 129.431C44.9431 129.063 45.0071 128.599 45.2151 128.039C45.2311 127.991 45.3111 127.735 45.4551 127.271C45.5991 126.807 45.7831 126.199 46.0071 125.447C46.2471 124.679 46.5031 123.831 46.7751 122.903C47.0631 121.975 47.3511 121.023 47.6391 120.047C47.9431 119.055 48.2311 118.103 48.5031 117.191C48.7911 116.279 49.0471 115.455 49.2711 114.719C49.4951 113.983 49.6711 113.399 49.7991 112.967C49.9271 112.535 49.9911 112.319 49.9911 112.319C50.1351 112.239 50.3991 112.143 50.7831 112.031C51.1831 111.903 51.6071 111.831 52.0551 111.815C52.5511 111.783 53.0311 111.847 53.4951 112.007C53.9751 112.167 54.3431 112.487 54.5991 112.967C54.7111 113.159 54.8791 113.527 55.1031 114.071C55.3271 114.615 55.5911 115.271 55.8951 116.039C56.1991 116.807 56.5191 117.631 56.8551 118.511C57.1911 119.375 57.5191 120.239 57.8391 121.103C58.1751 121.951 58.4791 122.743 58.7511 123.479C59.0231 124.215 59.2551 124.839 59.4471 125.351C59.6391 125.847 59.7671 126.167 59.8311 126.311ZM52.2711 123.215C52.6871 123.183 52.9271 123.063 52.9911 122.855C53.0711 122.647 53.1191 122.407 53.1351 122.135C53.1351 121.959 53.1031 121.743 53.0391 121.487C52.9911 121.231 52.9111 121.007 52.7991 120.815C52.7031 120.607 52.5751 120.503 52.4151 120.503C52.1911 120.503 51.9431 120.663 51.6711 120.983C51.4151 121.287 51.2711 121.599 51.2391 121.919C51.1911 122.223 51.2151 122.519 51.3111 122.807C51.4231 123.095 51.7431 123.231 52.2711 123.215ZM77.2438 126.767C77.9478 127.423 78.5558 127.847 79.0678 128.039C79.0198 128.231 78.9158 128.487 78.7558 128.807C78.6118 129.127 78.4198 129.447 78.1798 129.767C77.9558 130.087 77.6918 130.359 77.3878 130.583C77.0838 130.807 76.7478 130.927 76.3798 130.943C75.9318 130.959 75.5238 130.911 75.1558 130.799C74.8038 130.671 74.4278 130.463 74.0278 130.175C73.7238 129.935 73.3638 129.631 72.9478 129.263C72.5478 128.879 72.1558 128.487 71.7718 128.087C71.3878 127.687 71.0838 127.351 70.8598 127.079C70.5398 126.663 70.1958 126.311 69.8278 126.023C69.4598 125.735 69.0518 125.623 68.6038 125.687C68.3478 125.703 68.1878 125.775 68.1238 125.903C68.0758 126.015 68.0278 126.247 67.9798 126.599C67.9478 126.839 67.9398 127.127 67.9558 127.463C67.9718 127.783 67.9958 128.087 68.0278 128.375C68.0758 128.663 68.0998 128.871 68.0998 128.999C68.0998 129.287 68.1558 129.511 68.2678 129.671C68.3798 129.815 68.4918 129.951 68.6038 130.079C68.3318 130.287 67.9078 130.511 67.3318 130.751C66.7558 130.991 66.1158 131.111 65.4118 131.111C64.9478 131.111 64.5798 130.927 64.3078 130.559C64.0518 130.191 63.8678 129.743 63.7558 129.215C63.6438 128.687 63.5798 128.175 63.5638 127.679C63.5638 127.535 63.5558 127.143 63.5398 126.503C63.5398 125.863 63.5318 125.071 63.5158 124.127C63.5158 123.167 63.5158 122.143 63.5158 121.055C63.5158 119.951 63.5078 118.863 63.4918 117.791C63.4918 116.703 63.4838 115.719 63.4678 114.839C63.4678 113.943 63.4678 113.231 63.4678 112.703C63.4678 112.159 63.4678 111.887 63.4678 111.887C63.6438 111.855 63.9478 111.847 64.3798 111.863C64.8278 111.879 65.2918 111.951 65.7718 112.079C66.3158 112.207 66.8118 112.423 67.2598 112.727C67.7238 113.031 67.9878 113.471 68.0518 114.047C68.0838 114.415 68.0998 114.719 68.0998 114.959C68.1158 115.199 68.1238 115.447 68.1238 115.703C68.1238 116.551 68.3318 117.087 68.7478 117.311C69.2118 117.551 69.8438 117.391 70.6438 116.831C70.7718 116.735 70.9958 116.551 71.3158 116.279C71.6358 115.991 72.0038 115.655 72.4198 115.271C72.8358 114.887 73.2678 114.487 73.7158 114.071C74.1638 113.655 74.5718 113.271 74.9398 112.919C75.3238 112.551 75.6358 112.255 75.8758 112.031C76.1158 111.807 76.2358 111.695 76.2358 111.695C76.3798 111.807 76.5798 112.071 76.8358 112.487C77.1078 112.903 77.3478 113.367 77.5558 113.879C77.7638 114.391 77.8918 114.919 77.9398 115.463C78.0038 115.991 77.8998 116.431 77.6278 116.783C77.5158 116.927 77.3318 117.119 77.0758 117.359C76.8358 117.599 76.5638 117.855 76.2598 118.127C75.9718 118.383 75.6918 118.631 75.4198 118.871C75.1478 119.095 74.9398 119.271 74.7958 119.399C74.4918 119.655 74.2358 119.975 74.0278 120.359C73.8358 120.727 73.7158 121.111 73.6678 121.511C73.6198 121.911 73.6358 122.311 73.7158 122.711C73.7958 123.111 73.9718 123.479 74.2438 123.815C74.4358 124.039 74.7238 124.343 75.1078 124.727C75.4918 125.095 75.8838 125.471 76.2838 125.855C76.6838 126.223 77.0038 126.527 77.2438 126.767ZM88.6791 111.599C89.6231 111.599 90.5271 111.767 91.3911 112.103C92.2711 112.423 93.0071 112.855 93.5991 113.399C94.2071 113.943 94.5671 114.527 94.6791 115.151C94.7591 115.567 94.7031 116.031 94.5111 116.543C94.3191 117.039 94.0151 117.479 93.5991 117.863C93.1831 118.231 92.6791 118.431 92.0871 118.463C91.8791 118.463 91.6151 118.439 91.2951 118.391C90.9751 118.343 90.6631 118.247 90.3591 118.103C90.0711 117.959 89.8391 117.751 89.6631 117.479C89.9031 117.351 90.0631 117.215 90.1431 117.071C90.2231 116.927 90.2471 116.783 90.2151 116.639C90.1511 116.319 89.9591 116.055 89.6391 115.847C89.3351 115.639 88.9591 115.511 88.5111 115.463C88.2551 115.431 87.9591 115.439 87.6231 115.487C87.2871 115.519 86.9751 115.631 86.6871 115.823C86.4151 115.999 86.2231 116.295 86.1111 116.711C86.0471 116.951 86.0551 117.215 86.1351 117.503C86.2311 117.775 86.4551 118.039 86.8071 118.295C87.1591 118.535 87.6951 118.743 88.4151 118.919C89.5191 119.175 90.5431 119.455 91.4871 119.759C92.4471 120.063 93.2871 120.439 94.0071 120.887C94.7271 121.335 95.2791 121.895 95.6631 122.567C96.0631 123.223 96.2471 124.047 96.2151 125.039C96.1991 125.695 96.0231 126.383 95.6871 127.103C95.3511 127.823 94.8631 128.495 94.2231 129.119C93.5831 129.727 92.7991 130.223 91.8711 130.607C90.9431 130.991 89.8871 131.183 88.7031 131.183C87.9511 131.183 87.1751 131.119 86.3751 130.991C85.5751 130.863 84.8151 130.663 84.0951 130.391C83.3911 130.119 82.7671 129.759 82.2231 129.311C81.7431 128.895 81.3991 128.375 81.1911 127.751C80.9991 127.127 80.9591 126.503 81.0711 125.879C81.1831 125.239 81.4631 124.695 81.9111 124.247C82.3751 123.799 83.0151 123.551 83.8311 123.503C83.6711 123.983 83.7591 124.455 84.0951 124.919C84.4471 125.367 84.9671 125.751 85.6551 126.071C86.3431 126.375 87.0951 126.559 87.9111 126.623C88.7591 126.687 89.4951 126.655 90.1191 126.527C90.7591 126.399 91.1111 126.135 91.1751 125.735C91.2551 125.255 91.1591 124.871 90.8871 124.583C90.6151 124.295 90.2391 124.079 89.7591 123.935C89.2791 123.775 88.7591 123.647 88.1991 123.551C87.6391 123.439 87.1191 123.327 86.6391 123.215C85.9991 123.039 85.3511 122.815 84.6951 122.543C84.0551 122.255 83.4631 121.895 82.9191 121.463C82.3911 121.031 81.9591 120.503 81.6231 119.879C81.2871 119.255 81.1111 118.527 81.0951 117.695C81.0791 116.719 81.2791 115.855 81.6951 115.103C82.1111 114.335 82.6791 113.695 83.3991 113.183C84.1191 112.655 84.9351 112.263 85.8471 112.007C86.7751 111.735 87.7191 111.599 88.6791 111.599ZM116.66 120.527C116.82 122.015 116.748 123.335 116.444 124.487C116.156 125.639 115.7 126.639 115.076 127.487C114.468 128.319 113.748 129.007 112.916 129.551C112.084 130.079 111.196 130.479 110.252 130.751C109.324 131.007 108.404 131.135 107.492 131.135C106.58 131.135 105.652 131.015 104.708 130.775C103.764 130.535 102.868 130.159 102.02 129.647C101.188 129.135 100.452 128.471 99.8119 127.655C99.1879 126.839 98.7239 125.871 98.4199 124.751C98.1159 123.615 98.0439 122.303 98.2039 120.815C98.3319 119.535 98.6519 118.343 99.1639 117.239C99.6759 116.119 100.34 115.151 101.156 114.335C101.972 113.503 102.908 112.863 103.964 112.415C105.02 111.951 106.148 111.735 107.348 111.767C107.428 111.767 107.548 111.711 107.708 111.599C107.868 111.471 108.084 111.351 108.356 111.239C108.628 111.127 108.956 111.087 109.34 111.119C110.06 111.183 110.82 111.479 111.62 112.007C112.42 112.535 113.18 113.239 113.9 114.119C114.62 114.983 115.228 115.967 115.724 117.071C116.22 118.175 116.532 119.327 116.66 120.527ZM107.564 126.695C108.124 126.679 108.652 126.599 109.148 126.455C109.66 126.311 110.116 126.047 110.516 125.663C110.916 125.279 111.236 124.735 111.476 124.031C111.732 123.327 111.868 122.423 111.884 121.319C111.9 120.551 111.732 119.807 111.38 119.087C111.028 118.367 110.54 117.759 109.916 117.263C109.292 116.751 108.58 116.455 107.78 116.375C106.916 116.279 106.18 116.367 105.572 116.639C104.964 116.895 104.46 117.279 104.06 117.791C103.676 118.287 103.38 118.847 103.172 119.471C102.964 120.095 102.836 120.727 102.788 121.367C102.692 122.471 102.796 123.375 103.1 124.079C103.404 124.783 103.812 125.327 104.324 125.711C104.836 126.095 105.38 126.359 105.956 126.503C106.548 126.647 107.084 126.711 107.564 126.695ZM142.049 126.767C142.753 127.423 143.361 127.847 143.873 128.039C143.825 128.231 143.721 128.487 143.561 128.807C143.417 129.127 143.225 129.447 142.985 129.767C142.761 130.087 142.497 130.359 142.193 130.583C141.889 130.807 141.553 130.927 141.185 130.943C140.737 130.959 140.329 130.911 139.961 130.799C139.609 130.671 139.233 130.463 138.833 130.175C138.529 129.935 138.169 129.631 137.753 129.263C137.353 128.879 136.961 128.487 136.577 128.087C136.193 127.687 135.889 127.351 135.665 127.079C135.345 126.663 135.001 126.311 134.633 126.023C134.265 125.735 133.857 125.623 133.409 125.687C133.153 125.703 132.993 125.775 132.929 125.903C132.881 126.015 132.833 126.247 132.785 126.599C132.753 126.839 132.745 127.127 132.761 127.463C132.777 127.783 132.801 128.087 132.833 128.375C132.881 128.663 132.905 128.871 132.905 128.999C132.905 129.287 132.961 129.511 133.073 129.671C133.185 129.815 133.297 129.951 133.409 130.079C133.137 130.287 132.713 130.511 132.137 130.751C131.561 130.991 130.921 131.111 130.217 131.111C129.753 131.111 129.385 130.927 129.113 130.559C128.857 130.191 128.673 129.743 128.561 129.215C128.449 128.687 128.385 128.175 128.369 127.679C128.369 127.535 128.361 127.143 128.345 126.503C128.345 125.863 128.337 125.071 128.321 124.127C128.321 123.167 128.321 122.143 128.321 121.055C128.321 119.951 128.313 118.863 128.297 117.791C128.297 116.703 128.289 115.719 128.273 114.839C128.273 113.943 128.273 113.231 128.273 112.703C128.273 112.159 128.273 111.887 128.273 111.887C128.449 111.855 128.753 111.847 129.185 111.863C129.633 111.879 130.097 111.951 130.577 112.079C131.121 112.207 131.617 112.423 132.065 112.727C132.529 113.031 132.793 113.471 132.857 114.047C132.889 114.415 132.905 114.719 132.905 114.959C132.921 115.199 132.929 115.447 132.929 115.703C132.929 116.551 133.137 117.087 133.553 117.311C134.017 117.551 134.649 117.391 135.449 116.831C135.577 116.735 135.801 116.551 136.121 116.279C136.441 115.991 136.809 115.655 137.225 115.271C137.641 114.887 138.073 114.487 138.521 114.071C138.969 113.655 139.377 113.271 139.745 112.919C140.129 112.551 140.441 112.255 140.681 112.031C140.921 111.807 141.041 111.695 141.041 111.695C141.185 111.807 141.385 112.071 141.641 112.487C141.913 112.903 142.153 113.367 142.361 113.879C142.569 114.391 142.697 114.919 142.745 115.463C142.809 115.991 142.705 116.431 142.433 116.783C142.321 116.927 142.137 117.119 141.881 117.359C141.641 117.599 141.369 117.855 141.065 118.127C140.777 118.383 140.497 118.631 140.225 118.871C139.953 119.095 139.745 119.271 139.601 119.399C139.297 119.655 139.041 119.975 138.833 120.359C138.641 120.727 138.521 121.111 138.473 121.511C138.425 121.911 138.441 122.311 138.521 122.711C138.601 123.111 138.777 123.479 139.049 123.815C139.241 124.039 139.529 124.343 139.913 124.727C140.297 125.095 140.689 125.471 141.089 125.855C141.489 126.223 141.809 126.527 142.049 126.767ZM159.844 114.047C159.876 114.415 159.916 115.015 159.964 115.847C160.028 116.663 160.076 117.607 160.108 118.679C160.14 119.751 160.148 120.855 160.132 121.991C160.132 123.111 160.092 124.175 160.012 125.183C159.948 126.191 159.828 127.031 159.652 127.703C159.364 128.807 158.564 129.655 157.252 130.247C155.94 130.839 154.292 131.135 152.308 131.135C150.98 131.135 149.852 130.887 148.924 130.391C147.996 129.895 147.276 129.215 146.764 128.351C146.268 127.471 145.988 126.463 145.924 125.327C145.892 124.767 145.868 124.055 145.852 123.191C145.836 122.311 145.82 121.367 145.804 120.359C145.804 119.335 145.804 118.327 145.804 117.335C145.804 116.343 145.804 115.439 145.804 114.623C145.82 113.791 145.828 113.127 145.828 112.631C145.828 112.135 145.828 111.887 145.828 111.887C146.004 111.855 146.308 111.847 146.74 111.863C147.188 111.879 147.652 111.951 148.132 112.079C148.676 112.207 149.172 112.423 149.62 112.727C150.084 113.031 150.348 113.471 150.412 114.047C150.46 114.527 150.46 115.247 150.412 116.207C150.38 117.151 150.348 118.239 150.316 119.471C150.3 120.687 150.332 121.951 150.412 123.263C150.428 123.535 150.436 123.847 150.436 124.199C150.436 124.551 150.484 124.895 150.58 125.231C150.692 125.567 150.908 125.847 151.228 126.071C151.564 126.295 152.076 126.407 152.764 126.407C153.452 126.407 153.972 126.311 154.324 126.119C154.692 125.927 154.956 125.663 155.116 125.327C155.276 124.991 155.372 124.599 155.404 124.151C155.452 123.703 155.492 123.223 155.524 122.711C155.556 122.375 155.564 121.879 155.548 121.223C155.548 120.567 155.54 119.831 155.524 119.015C155.508 118.199 155.484 117.375 155.452 116.543C155.42 115.711 155.388 114.943 155.356 114.239C155.324 113.535 155.3 112.967 155.284 112.535C155.268 112.103 155.26 111.887 155.26 111.887C155.436 111.855 155.74 111.847 156.172 111.863C156.62 111.879 157.092 111.951 157.588 112.079C158.132 112.207 158.628 112.431 159.076 112.751C159.524 113.055 159.78 113.487 159.844 114.047ZM181.918 111.623C183.022 111.767 183.894 112.119 184.534 112.679C185.19 113.239 185.622 113.887 185.83 114.623C186.038 115.359 186.022 116.079 185.782 116.783C185.686 117.055 185.542 117.503 185.35 118.127C185.158 118.735 184.934 119.447 184.678 120.263C184.438 121.079 184.182 121.919 183.91 122.783C183.654 123.647 183.406 124.463 183.166 125.231C182.926 125.999 182.718 126.647 182.542 127.175C182.382 127.703 182.27 128.039 182.206 128.183C181.918 128.839 181.63 129.351 181.342 129.719C181.07 130.087 180.75 130.359 180.382 130.535C180.03 130.695 179.582 130.799 179.038 130.847C178.654 130.879 178.294 130.799 177.958 130.607C177.638 130.399 177.358 130.151 177.118 129.863C176.894 129.575 176.734 129.335 176.638 129.143C176.734 129.047 176.758 128.855 176.71 128.567C176.678 128.279 176.606 127.951 176.494 127.583C176.382 127.199 176.262 126.839 176.134 126.503C176.006 126.151 175.902 125.879 175.822 125.687C175.662 125.287 175.478 125.031 175.27 124.919C175.078 124.791 174.894 124.735 174.718 124.751C174.526 124.767 174.326 124.863 174.118 125.039C173.926 125.215 173.79 125.463 173.71 125.783C173.662 125.991 173.582 126.287 173.47 126.671C173.358 127.039 173.254 127.391 173.158 127.727C173.062 128.047 173.006 128.247 172.99 128.327C172.798 128.999 172.622 129.495 172.462 129.815C172.302 130.119 172.134 130.327 171.958 130.439C171.798 130.535 171.59 130.623 171.334 130.703C170.966 130.767 170.574 130.759 170.158 130.679C169.758 130.599 169.366 130.471 168.982 130.295C168.614 130.103 168.294 129.903 168.022 129.695C167.766 129.487 167.598 129.303 167.518 129.143C167.726 128.967 167.798 128.743 167.734 128.471C167.686 128.199 167.63 127.983 167.566 127.823C167.406 127.407 167.19 126.815 166.918 126.047C166.646 125.279 166.334 124.415 165.982 123.455C165.646 122.479 165.294 121.471 164.926 120.431C164.574 119.375 164.222 118.359 163.87 117.383C163.534 116.391 163.222 115.503 162.934 114.719C162.662 113.935 162.446 113.311 162.286 112.847C162.126 112.367 162.046 112.127 162.046 112.127C162.286 112.095 162.662 112.063 163.174 112.031C163.686 111.983 164.238 111.983 164.83 112.031C165.422 112.063 165.974 112.183 166.486 112.391C167.014 112.599 167.406 112.935 167.662 113.399C167.726 113.495 167.822 113.767 167.95 114.215C168.078 114.647 168.222 115.159 168.382 115.751C168.542 116.327 168.694 116.911 168.838 117.503C168.998 118.079 169.126 118.575 169.222 118.991C169.334 119.407 169.398 119.655 169.414 119.735C169.526 120.135 169.662 120.439 169.822 120.647C169.998 120.839 170.166 120.951 170.326 120.983C170.678 121.063 170.99 120.775 171.262 120.119C171.294 120.055 171.35 119.847 171.43 119.495C171.526 119.127 171.638 118.671 171.766 118.127C171.894 117.583 172.022 117.015 172.15 116.423C172.294 115.815 172.422 115.239 172.534 114.695C172.646 114.151 172.734 113.695 172.798 113.327C172.878 112.943 172.918 112.719 172.918 112.655C173.158 112.463 173.494 112.359 173.926 112.343C174.358 112.327 174.774 112.407 175.174 112.583C175.59 112.743 175.87 113.023 176.014 113.423C176.062 113.567 176.158 113.887 176.302 114.383C176.462 114.879 176.646 115.471 176.854 116.159C177.078 116.831 177.302 117.527 177.526 118.247C177.766 118.951 177.998 119.591 178.222 120.167C178.526 120.967 178.878 121.383 179.278 121.415C179.71 121.447 180.07 121.031 180.358 120.167C180.502 119.719 180.646 119.215 180.79 118.655C180.934 118.079 181.062 117.495 181.174 116.903C181.302 116.311 181.414 115.775 181.51 115.295C181.622 114.799 181.718 114.415 181.798 114.143C181.942 113.583 182.014 113.103 182.014 112.703C182.03 112.303 181.998 111.943 181.918 111.623ZM201.938 114.047C201.97 114.415 202.01 115.015 202.058 115.847C202.122 116.663 202.17 117.607 202.202 118.679C202.234 119.751 202.242 120.855 202.226 121.991C202.226 123.111 202.186 124.175 202.106 125.183C202.042 126.191 201.922 127.031 201.746 127.703C201.458 128.807 200.658 129.655 199.346 130.247C198.034 130.839 196.386 131.135 194.402 131.135C193.074 131.135 191.946 130.887 191.018 130.391C190.09 129.895 189.37 129.215 188.858 128.351C188.362 127.471 188.082 126.463 188.018 125.327C187.986 124.767 187.962 124.055 187.946 123.191C187.93 122.311 187.914 121.367 187.898 120.359C187.898 119.335 187.898 118.327 187.898 117.335C187.898 116.343 187.898 115.439 187.898 114.623C187.914 113.791 187.922 113.127 187.922 112.631C187.922 112.135 187.922 111.887 187.922 111.887C188.098 111.855 188.402 111.847 188.834 111.863C189.282 111.879 189.746 111.951 190.226 112.079C190.77 112.207 191.266 112.423 191.714 112.727C192.178 113.031 192.442 113.471 192.506 114.047C192.554 114.527 192.554 115.247 192.506 116.207C192.474 117.151 192.442 118.239 192.41 119.471C192.394 120.687 192.426 121.951 192.506 123.263C192.522 123.535 192.53 123.847 192.53 124.199C192.53 124.551 192.578 124.895 192.674 125.231C192.786 125.567 193.002 125.847 193.322 126.071C193.658 126.295 194.17 126.407 194.858 126.407C195.546 126.407 196.066 126.311 196.418 126.119C196.786 125.927 197.05 125.663 197.21 125.327C197.37 124.991 197.466 124.599 197.498 124.151C197.546 123.703 197.586 123.223 197.618 122.711C197.65 122.375 197.658 121.879 197.642 121.223C197.642 120.567 197.634 119.831 197.618 119.015C197.602 118.199 197.578 117.375 197.546 116.543C197.514 115.711 197.482 114.943 197.45 114.239C197.418 113.535 197.394 112.967 197.378 112.535C197.362 112.103 197.354 111.887 197.354 111.887C197.53 111.855 197.834 111.847 198.266 111.863C198.714 111.879 199.186 111.951 199.682 112.079C200.226 112.207 200.722 112.431 201.17 112.751C201.618 113.055 201.874 113.487 201.938 114.047ZM220.658 114.047C220.69 114.319 220.706 114.783 220.706 115.439C220.722 116.079 220.73 116.847 220.73 117.743C220.73 118.639 220.73 119.583 220.73 120.575C220.73 121.567 220.722 122.551 220.706 123.527C220.706 124.503 220.698 125.391 220.682 126.191C220.682 126.991 220.682 127.647 220.682 128.159C220.682 128.655 220.69 128.935 220.706 128.999C220.738 129.127 220.714 129.335 220.634 129.623C220.554 129.895 220.426 130.159 220.25 130.415C220.074 130.655 219.85 130.799 219.578 130.847C219.322 130.911 218.962 130.911 218.498 130.847C218.05 130.799 217.594 130.679 217.13 130.487C216.682 130.279 216.322 129.983 216.05 129.599C215.89 129.375 215.642 129.055 215.306 128.639C214.986 128.207 214.626 127.743 214.226 127.247C213.842 126.735 213.458 126.247 213.074 125.783C212.706 125.303 212.394 124.895 212.138 124.559C211.882 124.207 211.722 123.991 211.658 123.911C211.514 123.687 211.274 123.463 210.938 123.239C210.618 122.999 210.362 122.911 210.17 122.975C209.978 123.039 209.834 123.239 209.738 123.575C209.642 123.895 209.578 124.239 209.546 124.607C209.514 124.847 209.498 125.215 209.498 125.711C209.498 126.191 209.498 126.687 209.498 127.199C209.514 127.711 209.514 128.127 209.498 128.447C209.482 129.007 209.658 129.543 210.026 130.055C209.898 130.135 209.642 130.263 209.258 130.439C208.874 130.599 208.466 130.743 208.034 130.871C207.602 130.999 207.234 131.055 206.93 131.039C206.418 131.007 205.962 130.743 205.562 130.247C205.178 129.751 204.978 129.135 204.962 128.399C204.962 128.255 204.954 127.855 204.938 127.199C204.938 126.527 204.93 125.695 204.914 124.703C204.914 123.711 204.914 122.639 204.914 121.487C204.914 120.335 204.906 119.199 204.89 118.079C204.89 116.943 204.882 115.911 204.866 114.983C204.866 114.039 204.866 113.287 204.866 112.727C204.866 112.167 204.866 111.887 204.866 111.887C205.842 111.855 206.666 111.927 207.338 112.103C208.01 112.279 208.57 112.599 209.018 113.063C209.21 113.239 209.49 113.551 209.858 113.999C210.226 114.447 210.626 114.959 211.058 115.535C211.506 116.095 211.938 116.655 212.354 117.215C212.786 117.775 213.162 118.271 213.482 118.703C213.802 119.119 214.01 119.391 214.106 119.519C214.362 119.839 214.618 120.095 214.874 120.287C215.146 120.463 215.37 120.519 215.546 120.455C215.93 120.327 216.122 119.791 216.122 118.847L216.074 111.887C216.25 111.855 216.554 111.847 216.986 111.863C217.434 111.879 217.906 111.951 218.402 112.079C218.946 112.207 219.442 112.423 219.89 112.727C220.338 113.031 220.594 113.471 220.658 114.047ZM239.335 119.903C239.511 120.079 239.639 120.343 239.719 120.695C239.815 121.031 239.831 121.407 239.767 121.823C239.719 122.175 239.599 122.535 239.407 122.903C239.215 123.271 238.927 123.591 238.543 123.863C238.239 124.071 238.015 124.415 237.871 124.895C237.727 125.359 237.631 125.831 237.583 126.311C237.519 126.855 237.375 127.415 237.151 127.991C236.943 128.567 236.615 129.079 236.167 129.527C235.815 129.943 235.303 130.327 234.631 130.679C233.975 131.015 233.079 131.175 231.943 131.159C231.303 131.143 230.551 131.031 229.687 130.823C228.839 130.615 227.975 130.279 227.095 129.815C226.231 129.335 225.439 128.695 224.719 127.895C223.999 127.095 223.447 126.103 223.063 124.919C222.679 123.735 222.567 122.327 222.727 120.695C222.871 119.143 223.255 117.799 223.879 116.663C224.519 115.527 225.311 114.591 226.255 113.855C227.199 113.119 228.215 112.567 229.303 112.199C230.391 111.815 231.471 111.615 232.543 111.599C233.487 111.567 234.311 111.711 235.015 112.031C235.719 112.351 236.279 112.767 236.695 113.279C237.127 113.775 237.415 114.311 237.559 114.887C237.719 115.447 237.719 115.959 237.559 116.423C237.431 116.823 237.247 117.151 237.007 117.407C236.783 117.663 236.535 117.839 236.263 117.935C235.927 118.063 235.583 118.087 235.231 118.007C234.879 117.911 234.575 117.711 234.319 117.407C234.591 117.199 234.671 116.975 234.559 116.735C234.463 116.479 234.215 116.271 233.815 116.111C233.415 115.935 232.903 115.871 232.279 115.919C231.799 115.951 231.287 116.087 230.743 116.327C230.215 116.567 229.711 116.903 229.231 117.335C228.767 117.767 228.383 118.295 228.079 118.919C227.775 119.543 227.607 120.255 227.575 121.055C227.527 122.159 227.623 123.055 227.863 123.743C228.119 124.431 228.455 124.951 228.871 125.303C229.287 125.655 229.735 125.895 230.215 126.023C230.695 126.151 231.159 126.215 231.607 126.215C231.991 126.215 232.303 126.095 232.543 125.855C232.799 125.615 232.903 125.327 232.855 124.991C232.807 124.655 232.519 124.335 231.991 124.031C231.495 123.759 231.175 123.495 231.031 123.239C230.887 122.983 230.767 122.727 230.671 122.471C230.511 122.055 230.375 121.607 230.263 121.127C230.151 120.647 230.103 120.239 230.119 119.903C230.247 119.951 230.575 120.031 231.103 120.143C231.631 120.239 232.239 120.327 232.927 120.407C233.631 120.487 234.295 120.535 234.919 120.551C235.575 120.551 236.207 120.535 236.815 120.503C237.423 120.455 237.951 120.383 238.399 120.287C238.863 120.191 239.175 120.063 239.335 119.903Z" fill="#EDEDED"/>
</svg>
