<svg width="273" height="108" viewBox="0 0 273 108" fill="none" xmlns="http://www.w3.org/2000/svg">
<g filter="url(#filter0_d_202_66)">
<path d="M35.1845 10.104C38.9605 10.104 42.5765 10.776 46.0325 12.12C49.5525 13.4 52.4965 15.128 54.8645 17.304C57.2965 19.48 58.7365 21.816 59.1845 24.312C59.5045 25.976 59.2805 27.832 58.5125 29.88C57.7445 31.864 56.5285 33.624 54.8645 35.16C53.2005 36.632 51.1845 37.432 48.8165 37.56C47.9845 37.56 46.9285 37.464 45.6485 37.272C44.3685 37.08 43.1205 36.696 41.9045 36.12C40.7525 35.544 39.8245 34.712 39.1205 33.624C40.0805 33.112 40.7205 32.568 41.0405 31.992C41.3605 31.416 41.4565 30.84 41.3285 30.264C41.0725 28.984 40.3045 27.928 39.0245 27.096C37.8085 26.264 36.3045 25.752 34.5125 25.56C33.4885 25.432 32.3045 25.464 30.9605 25.656C29.6165 25.784 28.3685 26.232 27.2165 27C26.1285 27.704 25.3605 28.888 24.9125 30.552C24.6565 31.512 24.6885 32.568 25.0085 33.72C25.3925 34.808 26.2885 35.864 27.6965 36.888C29.1045 37.848 31.2485 38.68 34.1285 39.384C38.5445 40.408 42.6405 41.528 46.4165 42.744C50.2565 43.96 53.6165 45.464 56.4965 47.256C59.3765 49.048 61.5845 51.288 63.1205 53.976C64.7205 56.6 65.4565 59.896 65.3285 63.864C65.2645 66.488 64.5605 69.24 63.2165 72.12C61.8725 75 59.9205 77.688 57.3605 80.184C54.8005 82.616 51.6645 84.6 47.9525 86.136C44.2405 87.672 40.0165 88.44 35.2805 88.44C32.2725 88.44 29.1685 88.184 25.9685 87.672C22.7685 87.16 19.7285 86.36 16.8485 85.272C14.0325 84.184 11.5365 82.744 9.36051 80.952C7.44051 79.288 6.06451 77.208 5.23251 74.712C4.46451 72.216 4.30451 69.72 4.75251 67.224C5.20051 64.664 6.32051 62.488 8.11251 60.696C9.96851 58.904 12.5285 57.912 15.7925 57.72C15.1525 59.64 15.5045 61.528 16.8485 63.384C18.2565 65.176 20.3365 66.712 23.0885 67.992C25.8405 69.208 28.8485 69.944 32.1125 70.2C35.5045 70.456 38.4485 70.328 40.9445 69.816C43.5045 69.304 44.9125 68.248 45.1685 66.648C45.4885 64.728 45.1045 63.192 44.0165 62.04C42.9285 60.888 41.4245 60.024 39.5045 59.448C37.5845 58.808 35.5045 58.296 33.2645 57.912C31.0245 57.464 28.9445 57.016 27.0245 56.568C24.4645 55.864 21.8725 54.968 19.2485 53.88C16.6885 52.728 14.3205 51.288 12.1445 49.56C10.0325 47.832 8.30451 45.72 6.96051 43.224C5.61651 40.728 4.91251 37.816 4.84851 34.488C4.78451 30.584 5.58451 27.128 7.24851 24.12C8.91251 21.048 11.1845 18.488 14.0645 16.44C16.9445 14.328 20.2085 12.76 23.8565 11.736C27.5685 10.648 31.3445 10.104 35.1845 10.104ZM131.386 68.952C132.154 70.808 133.242 72.6 134.65 74.328C136.058 75.992 137.274 77.24 138.298 78.072C136.762 81.272 134.874 83.608 132.634 85.08C130.778 86.296 128.794 87 126.682 87.192C125.53 87.32 124.218 87.224 122.746 86.904C121.274 86.584 119.738 85.688 118.138 84.216C116.602 82.68 115.066 80.248 113.53 76.92C113.082 75.832 112.09 75.064 110.554 74.616C109.018 74.168 107.386 73.912 105.658 73.848C103.93 73.72 102.522 73.656 101.434 73.656C100.346 73.656 99.0023 73.688 97.4023 73.752C95.8663 73.816 94.4583 74.072 93.1783 74.52C91.8983 74.968 91.1303 75.768 90.8743 76.92C90.6183 77.944 90.5863 79 90.7783 80.088C90.9703 81.176 91.3863 81.88 92.0263 82.2C90.9383 83.224 89.8503 84.12 88.7623 84.888C87.7383 85.656 86.6823 86.264 85.5943 86.712C84.2503 87.288 82.8423 87.576 81.3703 87.576C79.9623 87.576 78.3623 87.256 76.5703 86.616C75.7383 86.296 74.8743 85.72 73.9783 84.888C73.0823 84.056 72.4743 82.904 72.1543 81.432C71.8343 79.96 72.0903 78.104 72.9223 75.864C72.9863 75.672 73.3063 74.648 73.8823 72.792C74.4583 70.936 75.1943 68.504 76.0903 65.496C77.0503 62.424 78.0743 59.032 79.1623 55.32C80.3143 51.608 81.4663 47.8 82.6183 43.896C83.8343 39.928 84.9863 36.12 86.0743 32.472C87.2263 28.824 88.2503 25.528 89.1463 22.584C90.0423 19.64 90.7463 17.304 91.2583 15.576C91.7703 13.848 92.0263 12.984 92.0263 12.984C92.6023 12.664 93.6583 12.28 95.1943 11.832C96.7943 11.32 98.4903 11.032 100.282 10.968C102.266 10.84 104.186 11.096 106.042 11.736C107.962 12.376 109.434 13.656 110.458 15.576C110.906 16.344 111.578 17.816 112.474 19.992C113.37 22.168 114.426 24.792 115.642 27.864C116.858 30.936 118.138 34.232 119.482 37.752C120.826 41.208 122.138 44.664 123.418 48.12C124.762 51.512 125.978 54.68 127.066 57.624C128.154 60.568 129.082 63.064 129.85 65.112C130.618 67.096 131.13 68.376 131.386 68.952ZM101.146 56.568C102.81 56.44 103.77 55.96 104.026 55.128C104.346 54.296 104.538 53.336 104.602 52.248C104.602 51.544 104.474 50.68 104.218 49.656C104.026 48.632 103.706 47.736 103.258 46.968C102.874 46.136 102.362 45.72 101.722 45.72C100.826 45.72 99.8343 46.36 98.7463 47.64C97.7223 48.856 97.1463 50.104 97.0183 51.384C96.8263 52.6 96.9223 53.784 97.3063 54.936C97.7543 56.088 99.0343 56.632 101.146 56.568ZM194.063 9.71999C194.831 10.36 195.375 11.608 195.695 13.464C196.079 15.32 196.239 17.336 196.175 19.512C196.111 21.624 195.791 23.544 195.215 25.272C194.639 26.936 193.807 27.928 192.719 28.248C192.271 28.376 191.343 28.568 189.935 28.824C188.591 29.016 187.343 29.272 186.191 29.592C185.103 29.912 183.663 30.456 181.871 31.224C180.079 31.992 178.543 33.112 177.263 34.584C176.239 35.8 175.407 37.08 174.767 38.424C174.127 39.704 173.775 41.368 173.711 43.416C173.647 44.248 173.615 45.816 173.615 48.12C173.615 50.36 173.615 52.984 173.615 55.992C173.615 58.936 173.615 61.848 173.615 64.728C173.679 67.608 173.711 70.072 173.711 72.12C173.711 74.168 173.711 75.384 173.711 75.768C173.647 77.688 173.839 79.32 174.287 80.664C174.735 82.008 175.215 82.808 175.727 83.064C174.127 84.28 172.527 85.304 170.927 86.136C169.391 86.968 167.183 87.576 164.303 87.96C163.215 88.088 161.999 87.768 160.655 87C159.311 86.296 158.127 85.176 157.103 83.64C156.143 82.04 155.631 80.088 155.567 77.784C155.567 75.48 155.535 72.536 155.471 68.952C155.471 65.304 155.471 61.368 155.471 57.144C155.535 52.856 155.535 48.568 155.471 44.28C155.407 42.424 155.119 40.664 154.607 39C154.159 37.336 153.391 35.896 152.303 34.68C151.215 33.4 149.775 32.344 147.983 31.512C146.191 30.68 143.951 30.136 141.263 29.88C140.559 29.816 139.599 29.624 138.383 29.304C137.167 28.984 136.335 28.664 135.887 28.344C135.183 27.832 134.607 26.872 134.159 25.464C133.711 23.992 133.359 22.392 133.103 20.664C132.847 18.872 132.655 17.112 132.527 15.384C132.463 13.656 132.463 12.248 132.527 11.16C132.783 11.224 133.487 11.32 134.639 11.448C135.855 11.576 137.295 11.704 138.959 11.832C140.623 11.896 142.255 11.96 143.855 12.024C145.007 12.088 146.543 12.152 148.463 12.216C150.447 12.28 152.559 12.344 154.799 12.408C157.039 12.472 159.151 12.536 161.135 12.6C163.119 12.6 164.751 12.6 166.031 12.6C167.759 12.536 169.775 12.472 172.079 12.408C174.383 12.344 176.591 12.28 178.703 12.216C180.879 12.088 182.607 11.96 183.887 11.832C185.167 11.704 186.511 11.544 187.919 11.352C189.391 11.096 190.671 10.84 191.759 10.584C192.911 10.264 193.679 9.97599 194.063 9.71999ZM260.031 19.896C260.159 21.368 260.319 23.768 260.511 27.096C260.767 30.36 260.959 34.136 261.087 38.424C261.215 42.712 261.247 47.128 261.183 51.672C261.183 56.152 261.023 60.408 260.703 64.44C260.447 68.472 259.967 71.832 259.263 74.52C258.111 78.936 254.911 82.328 249.663 84.696C244.415 87.064 237.823 88.248 229.887 88.248C224.575 88.248 220.063 87.256 216.351 85.272C212.639 83.288 209.759 80.568 207.711 77.112C205.727 73.592 204.607 69.56 204.351 65.016C204.223 62.776 204.127 59.928 204.063 56.472C203.999 52.952 203.935 49.176 203.871 45.144C203.871 41.048 203.871 37.016 203.871 33.048C203.871 29.08 203.871 25.464 203.871 22.2C203.935 18.872 203.967 16.216 203.967 14.232C203.967 12.248 203.967 11.256 203.967 11.256C204.671 11.128 205.887 11.096 207.615 11.16C209.407 11.224 211.263 11.512 213.183 12.024C215.359 12.536 217.343 13.4 219.135 14.616C220.991 15.832 222.047 17.592 222.303 19.896C222.495 21.816 222.495 24.696 222.303 28.536C222.175 32.312 222.047 36.664 221.919 41.592C221.855 46.456 221.983 51.512 222.303 56.76C222.367 57.848 222.399 59.096 222.399 60.504C222.399 61.912 222.591 63.288 222.975 64.632C223.423 65.976 224.287 67.096 225.567 67.992C226.911 68.888 228.959 69.336 231.711 69.336C234.463 69.336 236.543 68.952 237.951 68.184C239.423 67.416 240.479 66.36 241.119 65.016C241.759 63.672 242.143 62.104 242.271 60.312C242.463 58.52 242.623 56.6 242.751 54.552C242.879 53.208 242.911 51.224 242.847 48.6C242.847 45.976 242.815 43.032 242.751 39.768C242.687 36.504 242.591 33.208 242.463 29.88C242.335 26.552 242.207 23.48 242.079 20.664C241.951 17.848 241.855 15.576 241.791 13.848C241.727 12.12 241.695 11.256 241.695 11.256C242.399 11.128 243.615 11.096 245.343 11.16C247.135 11.224 249.023 11.512 251.007 12.024C253.183 12.536 255.167 13.432 256.959 14.712C258.751 15.928 259.775 17.656 260.031 19.896Z" fill="#E10000"/>
<path d="M42.138 46.616C42.442 46.872 42.69 47.136 42.882 47.408C43.074 47.664 43.21 48.016 43.29 48.464C43.37 48.896 43.394 49.504 43.362 50.288C43.346 50.672 43.274 51.12 43.146 51.632C43.034 52.144 42.834 52.664 42.546 53.192C42.258 53.72 41.858 54.208 41.346 54.656C40.834 55.104 40.186 55.472 39.402 55.76C38.618 56.048 37.658 56.192 36.522 56.192H36.042C35.482 56.16 34.81 56.144 34.026 56.144C33.242 56.16 32.514 56.168 31.842 56.168C31.442 56.2 31.018 56.216 30.57 56.216C30.122 56.216 29.714 56.192 29.346 56.144C28.978 56.096 28.706 56.024 28.53 55.928C28.642 55.704 28.738 55.368 28.818 54.92C28.914 54.456 28.986 53.952 29.034 53.408C29.082 52.864 29.098 52.344 29.082 51.848C29.082 51.72 29.074 51.4 29.058 50.888C29.058 50.36 29.05 49.712 29.034 48.944C29.034 48.16 29.026 47.312 29.01 46.4C29.01 45.488 29.01 44.576 29.01 43.664C29.01 42.72 29.002 41.912 28.986 41.24C28.97 40.568 28.818 40.152 28.53 39.992C28.258 39.816 28.018 39.472 27.81 38.96C27.618 38.432 27.522 37.752 27.522 36.92C27.586 36.936 27.786 36.96 28.122 36.992C28.458 37.008 28.778 37.032 29.082 37.064C29.45 37.08 29.97 37.096 30.642 37.112C31.33 37.112 32.042 37.112 32.778 37.112C33.338 37.112 33.898 37.112 34.458 37.112C35.018 37.112 35.522 37.12 35.97 37.136C36.434 37.136 36.77 37.136 36.978 37.136C37.97 37.136 38.842 37.32 39.594 37.688C40.346 38.04 40.938 38.512 41.37 39.104C41.802 39.696 42.018 40.344 42.018 41.048C42.018 41.752 41.906 42.368 41.682 42.896C41.474 43.424 41.266 43.872 41.058 44.24C40.85 44.592 40.754 44.872 40.77 45.08C40.818 45.416 40.97 45.68 41.226 45.872C41.498 46.064 41.802 46.312 42.138 46.616ZM37.29 42.416C37.322 42.208 37.226 42.016 37.002 41.84C36.794 41.648 36.506 41.496 36.138 41.384C35.786 41.256 35.41 41.192 35.01 41.192C34.61 41.192 34.306 41.296 34.098 41.504C33.89 41.712 33.754 41.96 33.69 42.248C33.626 42.52 33.61 42.752 33.642 42.944C33.69 43.248 33.914 43.464 34.314 43.592C34.73 43.704 35.122 43.768 35.49 43.784C35.858 43.8 36.234 43.704 36.618 43.496C37.002 43.272 37.226 42.912 37.29 42.416ZM36.33 51.536C36.906 51.52 37.338 51.432 37.626 51.272C37.93 51.112 38.138 50.904 38.25 50.648C38.362 50.392 38.434 50.136 38.466 49.88C38.514 49.528 38.41 49.224 38.154 48.968C37.898 48.696 37.546 48.488 37.098 48.344C36.65 48.2 36.154 48.136 35.61 48.152C35.066 48.152 34.642 48.272 34.338 48.512C34.034 48.752 33.826 49.032 33.714 49.352C33.602 49.656 33.554 49.928 33.57 50.168C33.618 50.504 33.874 50.824 34.338 51.128C34.802 51.416 35.466 51.552 36.33 51.536ZM60.1431 51.488C60.3351 51.952 60.6071 52.4 60.9591 52.832C61.3111 53.248 61.6151 53.56 61.8711 53.768C61.4871 54.568 61.0151 55.152 60.4551 55.52C59.9911 55.824 59.4951 56 58.9671 56.048C58.6791 56.08 58.3511 56.056 57.9831 55.976C57.6151 55.896 57.2311 55.672 56.8311 55.304C56.4471 54.92 56.0631 54.312 55.6791 53.48C55.5671 53.208 55.3191 53.016 54.9351 52.904C54.5511 52.792 54.1431 52.728 53.7111 52.712C53.2791 52.68 52.9271 52.664 52.6551 52.664C52.3831 52.664 52.0471 52.672 51.6471 52.688C51.2631 52.704 50.9111 52.768 50.5911 52.88C50.2711 52.992 50.0791 53.192 50.0151 53.48C49.9511 53.736 49.9431 54 49.9911 54.272C50.0391 54.544 50.1431 54.72 50.3031 54.8C50.0311 55.056 49.7591 55.28 49.4871 55.472C49.2311 55.664 48.9671 55.816 48.6951 55.928C48.3591 56.072 48.0071 56.144 47.6391 56.144C47.2871 56.144 46.8871 56.064 46.4391 55.904C46.2311 55.824 46.0151 55.68 45.7911 55.472C45.5671 55.264 45.4151 54.976 45.3351 54.608C45.2551 54.24 45.3191 53.776 45.5271 53.216C45.5431 53.168 45.6231 52.912 45.7671 52.448C45.9111 51.984 46.0951 51.376 46.3191 50.624C46.5591 49.856 46.8151 49.008 47.0871 48.08C47.3751 47.152 47.6631 46.2 47.9511 45.224C48.2551 44.232 48.5431 43.28 48.8151 42.368C49.1031 41.456 49.3591 40.632 49.5831 39.896C49.8071 39.16 49.9831 38.576 50.1111 38.144C50.2391 37.712 50.3031 37.496 50.3031 37.496C50.4471 37.416 50.7111 37.32 51.0951 37.208C51.4951 37.08 51.9191 37.008 52.3671 36.992C52.8631 36.96 53.3431 37.024 53.8071 37.184C54.2871 37.344 54.6551 37.664 54.9111 38.144C55.0231 38.336 55.1911 38.704 55.4151 39.248C55.6391 39.792 55.9031 40.448 56.2071 41.216C56.5111 41.984 56.8311 42.808 57.1671 43.688C57.5031 44.552 57.8311 45.416 58.1511 46.28C58.4871 47.128 58.7911 47.92 59.0631 48.656C59.3351 49.392 59.5671 50.016 59.7591 50.528C59.9511 51.024 60.0791 51.344 60.1431 51.488ZM52.5831 48.392C52.9991 48.36 53.2391 48.24 53.3031 48.032C53.3831 47.824 53.4311 47.584 53.4471 47.312C53.4471 47.136 53.4151 46.92 53.3511 46.664C53.3031 46.408 53.2231 46.184 53.1111 45.992C53.0151 45.784 52.8871 45.68 52.7271 45.68C52.5031 45.68 52.2551 45.84 51.9831 46.16C51.7271 46.464 51.5831 46.776 51.5511 47.096C51.5031 47.4 51.5271 47.696 51.6231 47.984C51.7351 48.272 52.0551 48.408 52.5831 48.392ZM77.5558 51.944C78.2598 52.6 78.8678 53.024 79.3798 53.216C79.3318 53.408 79.2278 53.664 79.0678 53.984C78.9238 54.304 78.7318 54.624 78.4918 54.944C78.2678 55.264 78.0038 55.536 77.6998 55.76C77.3958 55.984 77.0598 56.104 76.6918 56.12C76.2438 56.136 75.8358 56.088 75.4678 55.976C75.1158 55.848 74.7398 55.64 74.3398 55.352C74.0358 55.112 73.6758 54.808 73.2598 54.44C72.8598 54.056 72.4678 53.664 72.0838 53.264C71.6998 52.864 71.3958 52.528 71.1718 52.256C70.8518 51.84 70.5078 51.488 70.1398 51.2C69.7718 50.912 69.3638 50.8 68.9158 50.864C68.6598 50.88 68.4998 50.952 68.4358 51.08C68.3878 51.192 68.3398 51.424 68.2918 51.776C68.2598 52.016 68.2518 52.304 68.2678 52.64C68.2838 52.96 68.3078 53.264 68.3398 53.552C68.3878 53.84 68.4118 54.048 68.4118 54.176C68.4118 54.464 68.4678 54.688 68.5798 54.848C68.6918 54.992 68.8038 55.128 68.9158 55.256C68.6438 55.464 68.2198 55.688 67.6438 55.928C67.0678 56.168 66.4278 56.288 65.7238 56.288C65.2598 56.288 64.8918 56.104 64.6198 55.736C64.3638 55.368 64.1798 54.92 64.0678 54.392C63.9558 53.864 63.8918 53.352 63.8758 52.856C63.8758 52.712 63.8678 52.32 63.8518 51.68C63.8518 51.04 63.8438 50.248 63.8278 49.304C63.8278 48.344 63.8278 47.32 63.8278 46.232C63.8278 45.128 63.8198 44.04 63.8038 42.968C63.8038 41.88 63.7958 40.896 63.7798 40.016C63.7798 39.12 63.7798 38.408 63.7798 37.88C63.7798 37.336 63.7798 37.064 63.7798 37.064C63.9558 37.032 64.2598 37.024 64.6918 37.04C65.1398 37.056 65.6038 37.128 66.0838 37.256C66.6278 37.384 67.1238 37.6 67.5718 37.904C68.0358 38.208 68.2998 38.648 68.3638 39.224C68.3958 39.592 68.4118 39.896 68.4118 40.136C68.4278 40.376 68.4358 40.624 68.4358 40.88C68.4358 41.728 68.6438 42.264 69.0598 42.488C69.5238 42.728 70.1558 42.568 70.9558 42.008C71.0838 41.912 71.3078 41.728 71.6278 41.456C71.9478 41.168 72.3158 40.832 72.7318 40.448C73.1478 40.064 73.5798 39.664 74.0278 39.248C74.4758 38.832 74.8838 38.448 75.2518 38.096C75.6358 37.728 75.9478 37.432 76.1878 37.208C76.4278 36.984 76.5478 36.872 76.5478 36.872C76.6918 36.984 76.8918 37.248 77.1478 37.664C77.4198 38.08 77.6598 38.544 77.8678 39.056C78.0758 39.568 78.2038 40.096 78.2518 40.64C78.3158 41.168 78.2118 41.608 77.9398 41.96C77.8278 42.104 77.6438 42.296 77.3878 42.536C77.1478 42.776 76.8758 43.032 76.5718 43.304C76.2838 43.56 76.0038 43.808 75.7318 44.048C75.4598 44.272 75.2518 44.448 75.1078 44.576C74.8038 44.832 74.5478 45.152 74.3398 45.536C74.1478 45.904 74.0278 46.288 73.9798 46.688C73.9318 47.088 73.9478 47.488 74.0278 47.888C74.1078 48.288 74.2838 48.656 74.5558 48.992C74.7478 49.216 75.0358 49.52 75.4198 49.904C75.8038 50.272 76.1958 50.648 76.5958 51.032C76.9958 51.4 77.3158 51.704 77.5558 51.944ZM88.9911 36.776C89.9351 36.776 90.8391 36.944 91.7031 37.28C92.5831 37.6 93.3191 38.032 93.9111 38.576C94.5191 39.12 94.8791 39.704 94.9911 40.328C95.0711 40.744 95.0151 41.208 94.8231 41.72C94.6311 42.216 94.3271 42.656 93.9111 43.04C93.4951 43.408 92.9911 43.608 92.3991 43.64C92.1911 43.64 91.9271 43.616 91.6071 43.568C91.2871 43.52 90.9751 43.424 90.6711 43.28C90.3831 43.136 90.1511 42.928 89.9751 42.656C90.2151 42.528 90.3751 42.392 90.4551 42.248C90.5351 42.104 90.5591 41.96 90.5271 41.816C90.4631 41.496 90.2711 41.232 89.9511 41.024C89.6471 40.816 89.2711 40.688 88.8231 40.64C88.5671 40.608 88.2711 40.616 87.9351 40.664C87.5991 40.696 87.2871 40.808 86.9991 41C86.7271 41.176 86.5351 41.472 86.4231 41.888C86.3591 42.128 86.3671 42.392 86.4471 42.68C86.5431 42.952 86.7671 43.216 87.1191 43.472C87.4711 43.712 88.0071 43.92 88.7271 44.096C89.8311 44.352 90.8551 44.632 91.7991 44.936C92.7591 45.24 93.5991 45.616 94.3191 46.064C95.0391 46.512 95.5911 47.072 95.9751 47.744C96.3751 48.4 96.5591 49.224 96.5271 50.216C96.5111 50.872 96.3351 51.56 95.9991 52.28C95.6631 53 95.1751 53.672 94.5351 54.296C93.8951 54.904 93.1111 55.4 92.1831 55.784C91.2551 56.168 90.1991 56.36 89.0151 56.36C88.2631 56.36 87.4871 56.296 86.6871 56.168C85.8871 56.04 85.1271 55.84 84.4071 55.568C83.7031 55.296 83.0791 54.936 82.5351 54.488C82.0551 54.072 81.7111 53.552 81.5031 52.928C81.3111 52.304 81.2711 51.68 81.3831 51.056C81.4951 50.416 81.7751 49.872 82.2231 49.424C82.6871 48.976 83.3271 48.728 84.1431 48.68C83.9831 49.16 84.0711 49.632 84.4071 50.096C84.7591 50.544 85.2791 50.928 85.9671 51.248C86.6551 51.552 87.4071 51.736 88.2231 51.8C89.0711 51.864 89.8071 51.832 90.4311 51.704C91.0711 51.576 91.4231 51.312 91.4871 50.912C91.5671 50.432 91.4711 50.048 91.1991 49.76C90.9271 49.472 90.5511 49.256 90.0711 49.112C89.5911 48.952 89.0711 48.824 88.5111 48.728C87.9511 48.616 87.4311 48.504 86.9511 48.392C86.3111 48.216 85.6631 47.992 85.0071 47.72C84.3671 47.432 83.7751 47.072 83.2311 46.64C82.7031 46.208 82.2711 45.68 81.9351 45.056C81.5991 44.432 81.4231 43.704 81.4071 42.872C81.3911 41.896 81.5911 41.032 82.0071 40.28C82.4231 39.512 82.9911 38.872 83.7111 38.36C84.4311 37.832 85.2471 37.44 86.1591 37.184C87.0871 36.912 88.0311 36.776 88.9911 36.776ZM116.972 45.704C117.132 47.192 117.06 48.512 116.756 49.664C116.468 50.816 116.012 51.816 115.388 52.664C114.78 53.496 114.06 54.184 113.228 54.728C112.396 55.256 111.508 55.656 110.564 55.928C109.636 56.184 108.716 56.312 107.804 56.312C106.892 56.312 105.964 56.192 105.02 55.952C104.076 55.712 103.18 55.336 102.332 54.824C101.5 54.312 100.764 53.648 100.124 52.832C99.4999 52.016 99.0359 51.048 98.7319 49.928C98.4279 48.792 98.3559 47.48 98.5159 45.992C98.6439 44.712 98.9639 43.52 99.4759 42.416C99.9879 41.296 100.652 40.328 101.468 39.512C102.284 38.68 103.22 38.04 104.276 37.592C105.332 37.128 106.46 36.912 107.66 36.944C107.74 36.944 107.86 36.888 108.02 36.776C108.18 36.648 108.396 36.528 108.668 36.416C108.94 36.304 109.268 36.264 109.652 36.296C110.372 36.36 111.132 36.656 111.932 37.184C112.732 37.712 113.492 38.416 114.212 39.296C114.932 40.16 115.54 41.144 116.036 42.248C116.532 43.352 116.844 44.504 116.972 45.704ZM107.876 51.872C108.436 51.856 108.964 51.776 109.46 51.632C109.972 51.488 110.428 51.224 110.828 50.84C111.228 50.456 111.548 49.912 111.788 49.208C112.044 48.504 112.18 47.6 112.196 46.496C112.212 45.728 112.044 44.984 111.692 44.264C111.34 43.544 110.852 42.936 110.228 42.44C109.604 41.928 108.892 41.632 108.092 41.552C107.228 41.456 106.492 41.544 105.884 41.816C105.276 42.072 104.772 42.456 104.372 42.968C103.988 43.464 103.692 44.024 103.484 44.648C103.276 45.272 103.148 45.904 103.1 46.544C103.004 47.648 103.108 48.552 103.412 49.256C103.716 49.96 104.124 50.504 104.636 50.888C105.148 51.272 105.692 51.536 106.268 51.68C106.86 51.824 107.396 51.888 107.876 51.872ZM142.361 51.944C143.065 52.6 143.673 53.024 144.185 53.216C144.137 53.408 144.033 53.664 143.873 53.984C143.729 54.304 143.537 54.624 143.297 54.944C143.073 55.264 142.809 55.536 142.505 55.76C142.201 55.984 141.865 56.104 141.497 56.12C141.049 56.136 140.641 56.088 140.273 55.976C139.921 55.848 139.545 55.64 139.145 55.352C138.841 55.112 138.481 54.808 138.065 54.44C137.665 54.056 137.273 53.664 136.889 53.264C136.505 52.864 136.201 52.528 135.977 52.256C135.657 51.84 135.313 51.488 134.945 51.2C134.577 50.912 134.169 50.8 133.721 50.864C133.465 50.88 133.305 50.952 133.241 51.08C133.193 51.192 133.145 51.424 133.097 51.776C133.065 52.016 133.057 52.304 133.073 52.64C133.089 52.96 133.113 53.264 133.145 53.552C133.193 53.84 133.217 54.048 133.217 54.176C133.217 54.464 133.273 54.688 133.385 54.848C133.497 54.992 133.609 55.128 133.721 55.256C133.449 55.464 133.025 55.688 132.449 55.928C131.873 56.168 131.233 56.288 130.529 56.288C130.065 56.288 129.697 56.104 129.425 55.736C129.169 55.368 128.985 54.92 128.873 54.392C128.761 53.864 128.697 53.352 128.681 52.856C128.681 52.712 128.673 52.32 128.657 51.68C128.657 51.04 128.649 50.248 128.633 49.304C128.633 48.344 128.633 47.32 128.633 46.232C128.633 45.128 128.625 44.04 128.609 42.968C128.609 41.88 128.601 40.896 128.585 40.016C128.585 39.12 128.585 38.408 128.585 37.88C128.585 37.336 128.585 37.064 128.585 37.064C128.761 37.032 129.065 37.024 129.497 37.04C129.945 37.056 130.409 37.128 130.889 37.256C131.433 37.384 131.929 37.6 132.377 37.904C132.841 38.208 133.105 38.648 133.169 39.224C133.201 39.592 133.217 39.896 133.217 40.136C133.233 40.376 133.241 40.624 133.241 40.88C133.241 41.728 133.449 42.264 133.865 42.488C134.329 42.728 134.961 42.568 135.761 42.008C135.889 41.912 136.113 41.728 136.433 41.456C136.753 41.168 137.121 40.832 137.537 40.448C137.953 40.064 138.385 39.664 138.833 39.248C139.281 38.832 139.689 38.448 140.057 38.096C140.441 37.728 140.753 37.432 140.993 37.208C141.233 36.984 141.353 36.872 141.353 36.872C141.497 36.984 141.697 37.248 141.953 37.664C142.225 38.08 142.465 38.544 142.673 39.056C142.881 39.568 143.009 40.096 143.057 40.64C143.121 41.168 143.017 41.608 142.745 41.96C142.633 42.104 142.449 42.296 142.193 42.536C141.953 42.776 141.681 43.032 141.377 43.304C141.089 43.56 140.809 43.808 140.537 44.048C140.265 44.272 140.057 44.448 139.913 44.576C139.609 44.832 139.353 45.152 139.145 45.536C138.953 45.904 138.833 46.288 138.785 46.688C138.737 47.088 138.753 47.488 138.833 47.888C138.913 48.288 139.089 48.656 139.361 48.992C139.553 49.216 139.841 49.52 140.225 49.904C140.609 50.272 141.001 50.648 141.401 51.032C141.801 51.4 142.121 51.704 142.361 51.944ZM160.156 39.224C160.188 39.592 160.228 40.192 160.276 41.024C160.34 41.84 160.388 42.784 160.42 43.856C160.452 44.928 160.46 46.032 160.444 47.168C160.444 48.288 160.404 49.352 160.324 50.36C160.26 51.368 160.14 52.208 159.964 52.88C159.676 53.984 158.876 54.832 157.564 55.424C156.252 56.016 154.604 56.312 152.62 56.312C151.292 56.312 150.164 56.064 149.236 55.568C148.308 55.072 147.588 54.392 147.076 53.528C146.58 52.648 146.3 51.64 146.236 50.504C146.204 49.944 146.18 49.232 146.164 48.368C146.148 47.488 146.132 46.544 146.116 45.536C146.116 44.512 146.116 43.504 146.116 42.512C146.116 41.52 146.116 40.616 146.116 39.8C146.132 38.968 146.14 38.304 146.14 37.808C146.14 37.312 146.14 37.064 146.14 37.064C146.316 37.032 146.62 37.024 147.052 37.04C147.5 37.056 147.964 37.128 148.444 37.256C148.988 37.384 149.484 37.6 149.932 37.904C150.396 38.208 150.66 38.648 150.724 39.224C150.772 39.704 150.772 40.424 150.724 41.384C150.692 42.328 150.66 43.416 150.628 44.648C150.612 45.864 150.644 47.128 150.724 48.44C150.74 48.712 150.748 49.024 150.748 49.376C150.748 49.728 150.796 50.072 150.892 50.408C151.004 50.744 151.22 51.024 151.54 51.248C151.876 51.472 152.388 51.584 153.076 51.584C153.764 51.584 154.284 51.488 154.636 51.296C155.004 51.104 155.268 50.84 155.428 50.504C155.588 50.168 155.684 49.776 155.716 49.328C155.764 48.88 155.804 48.4 155.836 47.888C155.868 47.552 155.876 47.056 155.86 46.4C155.86 45.744 155.852 45.008 155.836 44.192C155.82 43.376 155.796 42.552 155.764 41.72C155.732 40.888 155.7 40.12 155.668 39.416C155.636 38.712 155.612 38.144 155.596 37.712C155.58 37.28 155.572 37.064 155.572 37.064C155.748 37.032 156.052 37.024 156.484 37.04C156.932 37.056 157.404 37.128 157.9 37.256C158.444 37.384 158.94 37.608 159.388 37.928C159.836 38.232 160.092 38.664 160.156 39.224ZM182.23 36.8C183.334 36.944 184.206 37.296 184.846 37.856C185.502 38.416 185.934 39.064 186.142 39.8C186.35 40.536 186.334 41.256 186.094 41.96C185.998 42.232 185.854 42.68 185.662 43.304C185.47 43.912 185.246 44.624 184.99 45.44C184.75 46.256 184.494 47.096 184.222 47.96C183.966 48.824 183.718 49.64 183.478 50.408C183.238 51.176 183.03 51.824 182.854 52.352C182.694 52.88 182.582 53.216 182.518 53.36C182.23 54.016 181.942 54.528 181.654 54.896C181.382 55.264 181.062 55.536 180.694 55.712C180.342 55.872 179.894 55.976 179.35 56.024C178.966 56.056 178.606 55.976 178.27 55.784C177.95 55.576 177.67 55.328 177.43 55.04C177.206 54.752 177.046 54.512 176.95 54.32C177.046 54.224 177.07 54.032 177.022 53.744C176.99 53.456 176.918 53.128 176.806 52.76C176.694 52.376 176.574 52.016 176.446 51.68C176.318 51.328 176.214 51.056 176.134 50.864C175.974 50.464 175.79 50.208 175.582 50.096C175.39 49.968 175.206 49.912 175.03 49.928C174.838 49.944 174.638 50.04 174.43 50.216C174.238 50.392 174.102 50.64 174.022 50.96C173.974 51.168 173.894 51.464 173.782 51.848C173.67 52.216 173.566 52.568 173.47 52.904C173.374 53.224 173.318 53.424 173.302 53.504C173.11 54.176 172.934 54.672 172.774 54.992C172.614 55.296 172.446 55.504 172.27 55.616C172.11 55.712 171.902 55.8 171.646 55.88C171.278 55.944 170.886 55.936 170.47 55.856C170.07 55.776 169.678 55.648 169.294 55.472C168.926 55.28 168.606 55.08 168.334 54.872C168.078 54.664 167.91 54.48 167.83 54.32C168.038 54.144 168.11 53.92 168.046 53.648C167.998 53.376 167.942 53.16 167.878 53C167.718 52.584 167.502 51.992 167.23 51.224C166.958 50.456 166.646 49.592 166.294 48.632C165.958 47.656 165.606 46.648 165.238 45.608C164.886 44.552 164.534 43.536 164.182 42.56C163.846 41.568 163.534 40.68 163.246 39.896C162.974 39.112 162.758 38.488 162.598 38.024C162.438 37.544 162.358 37.304 162.358 37.304C162.598 37.272 162.974 37.24 163.486 37.208C163.998 37.16 164.55 37.16 165.142 37.208C165.734 37.24 166.286 37.36 166.798 37.568C167.326 37.776 167.718 38.112 167.974 38.576C168.038 38.672 168.134 38.944 168.262 39.392C168.39 39.824 168.534 40.336 168.694 40.928C168.854 41.504 169.006 42.088 169.15 42.68C169.31 43.256 169.438 43.752 169.534 44.168C169.646 44.584 169.71 44.832 169.726 44.912C169.838 45.312 169.974 45.616 170.134 45.824C170.31 46.016 170.478 46.128 170.638 46.16C170.99 46.24 171.302 45.952 171.574 45.296C171.606 45.232 171.662 45.024 171.742 44.672C171.838 44.304 171.95 43.848 172.078 43.304C172.206 42.76 172.334 42.192 172.462 41.6C172.606 40.992 172.734 40.416 172.846 39.872C172.958 39.328 173.046 38.872 173.11 38.504C173.19 38.12 173.23 37.896 173.23 37.832C173.47 37.64 173.806 37.536 174.238 37.52C174.67 37.504 175.086 37.584 175.486 37.76C175.902 37.92 176.182 38.2 176.326 38.6C176.374 38.744 176.47 39.064 176.614 39.56C176.774 40.056 176.958 40.648 177.166 41.336C177.39 42.008 177.614 42.704 177.838 43.424C178.078 44.128 178.31 44.768 178.534 45.344C178.838 46.144 179.19 46.56 179.59 46.592C180.022 46.624 180.382 46.208 180.67 45.344C180.814 44.896 180.958 44.392 181.102 43.832C181.246 43.256 181.374 42.672 181.486 42.08C181.614 41.488 181.726 40.952 181.822 40.472C181.934 39.976 182.03 39.592 182.11 39.32C182.254 38.76 182.326 38.28 182.326 37.88C182.342 37.48 182.31 37.12 182.23 36.8ZM202.25 39.224C202.282 39.592 202.322 40.192 202.37 41.024C202.434 41.84 202.482 42.784 202.514 43.856C202.546 44.928 202.554 46.032 202.538 47.168C202.538 48.288 202.498 49.352 202.418 50.36C202.354 51.368 202.234 52.208 202.058 52.88C201.77 53.984 200.97 54.832 199.658 55.424C198.346 56.016 196.698 56.312 194.714 56.312C193.386 56.312 192.258 56.064 191.33 55.568C190.402 55.072 189.682 54.392 189.17 53.528C188.674 52.648 188.394 51.64 188.33 50.504C188.298 49.944 188.274 49.232 188.258 48.368C188.242 47.488 188.226 46.544 188.21 45.536C188.21 44.512 188.21 43.504 188.21 42.512C188.21 41.52 188.21 40.616 188.21 39.8C188.226 38.968 188.234 38.304 188.234 37.808C188.234 37.312 188.234 37.064 188.234 37.064C188.41 37.032 188.714 37.024 189.146 37.04C189.594 37.056 190.058 37.128 190.538 37.256C191.082 37.384 191.578 37.6 192.026 37.904C192.49 38.208 192.754 38.648 192.818 39.224C192.866 39.704 192.866 40.424 192.818 41.384C192.786 42.328 192.754 43.416 192.722 44.648C192.706 45.864 192.738 47.128 192.818 48.44C192.834 48.712 192.842 49.024 192.842 49.376C192.842 49.728 192.89 50.072 192.986 50.408C193.098 50.744 193.314 51.024 193.634 51.248C193.97 51.472 194.482 51.584 195.17 51.584C195.858 51.584 196.378 51.488 196.73 51.296C197.098 51.104 197.362 50.84 197.522 50.504C197.682 50.168 197.778 49.776 197.81 49.328C197.858 48.88 197.898 48.4 197.93 47.888C197.962 47.552 197.97 47.056 197.954 46.4C197.954 45.744 197.946 45.008 197.93 44.192C197.914 43.376 197.89 42.552 197.858 41.72C197.826 40.888 197.794 40.12 197.762 39.416C197.73 38.712 197.706 38.144 197.69 37.712C197.674 37.28 197.666 37.064 197.666 37.064C197.842 37.032 198.146 37.024 198.578 37.04C199.026 37.056 199.498 37.128 199.994 37.256C200.538 37.384 201.034 37.608 201.482 37.928C201.93 38.232 202.186 38.664 202.25 39.224ZM220.97 39.224C221.002 39.496 221.018 39.96 221.018 40.616C221.034 41.256 221.042 42.024 221.042 42.92C221.042 43.816 221.042 44.76 221.042 45.752C221.042 46.744 221.034 47.728 221.018 48.704C221.018 49.68 221.01 50.568 220.994 51.368C220.994 52.168 220.994 52.824 220.994 53.336C220.994 53.832 221.002 54.112 221.018 54.176C221.05 54.304 221.026 54.512 220.946 54.8C220.866 55.072 220.738 55.336 220.562 55.592C220.386 55.832 220.162 55.976 219.89 56.024C219.634 56.088 219.274 56.088 218.81 56.024C218.362 55.976 217.906 55.856 217.442 55.664C216.994 55.456 216.634 55.16 216.362 54.776C216.202 54.552 215.954 54.232 215.618 53.816C215.298 53.384 214.938 52.92 214.538 52.424C214.154 51.912 213.77 51.424 213.386 50.96C213.018 50.48 212.706 50.072 212.45 49.736C212.194 49.384 212.034 49.168 211.97 49.088C211.826 48.864 211.586 48.64 211.25 48.416C210.93 48.176 210.674 48.088 210.482 48.152C210.29 48.216 210.146 48.416 210.05 48.752C209.954 49.072 209.89 49.416 209.858 49.784C209.826 50.024 209.81 50.392 209.81 50.888C209.81 51.368 209.81 51.864 209.81 52.376C209.826 52.888 209.826 53.304 209.81 53.624C209.794 54.184 209.97 54.72 210.338 55.232C210.21 55.312 209.954 55.44 209.57 55.616C209.186 55.776 208.778 55.92 208.346 56.048C207.914 56.176 207.546 56.232 207.242 56.216C206.73 56.184 206.274 55.92 205.874 55.424C205.49 54.928 205.29 54.312 205.274 53.576C205.274 53.432 205.266 53.032 205.25 52.376C205.25 51.704 205.242 50.872 205.226 49.88C205.226 48.888 205.226 47.816 205.226 46.664C205.226 45.512 205.218 44.376 205.202 43.256C205.202 42.12 205.194 41.088 205.178 40.16C205.178 39.216 205.178 38.464 205.178 37.904C205.178 37.344 205.178 37.064 205.178 37.064C206.154 37.032 206.978 37.104 207.65 37.28C208.322 37.456 208.882 37.776 209.33 38.24C209.522 38.416 209.802 38.728 210.17 39.176C210.538 39.624 210.938 40.136 211.37 40.712C211.818 41.272 212.25 41.832 212.666 42.392C213.098 42.952 213.474 43.448 213.794 43.88C214.114 44.296 214.322 44.568 214.418 44.696C214.674 45.016 214.93 45.272 215.186 45.464C215.458 45.64 215.682 45.696 215.858 45.632C216.242 45.504 216.434 44.968 216.434 44.024L216.386 37.064C216.562 37.032 216.866 37.024 217.298 37.04C217.746 37.056 218.218 37.128 218.714 37.256C219.258 37.384 219.754 37.6 220.202 37.904C220.65 38.208 220.906 38.648 220.97 39.224ZM239.647 45.08C239.823 45.256 239.951 45.52 240.031 45.872C240.127 46.208 240.143 46.584 240.079 47C240.031 47.352 239.911 47.712 239.719 48.08C239.527 48.448 239.239 48.768 238.855 49.04C238.551 49.248 238.327 49.592 238.183 50.072C238.039 50.536 237.943 51.008 237.895 51.488C237.831 52.032 237.687 52.592 237.463 53.168C237.255 53.744 236.927 54.256 236.479 54.704C236.127 55.12 235.615 55.504 234.943 55.856C234.287 56.192 233.391 56.352 232.255 56.336C231.615 56.32 230.863 56.208 229.999 56C229.151 55.792 228.287 55.456 227.407 54.992C226.543 54.512 225.751 53.872 225.031 53.072C224.311 52.272 223.759 51.28 223.375 50.096C222.991 48.912 222.879 47.504 223.039 45.872C223.183 44.32 223.567 42.976 224.191 41.84C224.831 40.704 225.623 39.768 226.567 39.032C227.511 38.296 228.527 37.744 229.615 37.376C230.703 36.992 231.783 36.792 232.855 36.776C233.799 36.744 234.623 36.888 235.327 37.208C236.031 37.528 236.591 37.944 237.007 38.456C237.439 38.952 237.727 39.488 237.871 40.064C238.031 40.624 238.031 41.136 237.871 41.6C237.743 42 237.559 42.328 237.319 42.584C237.095 42.84 236.847 43.016 236.575 43.112C236.239 43.24 235.895 43.264 235.543 43.184C235.191 43.088 234.887 42.888 234.631 42.584C234.903 42.376 234.983 42.152 234.871 41.912C234.775 41.656 234.527 41.448 234.127 41.288C233.727 41.112 233.215 41.048 232.591 41.096C232.111 41.128 231.599 41.264 231.055 41.504C230.527 41.744 230.023 42.08 229.543 42.512C229.079 42.944 228.695 43.472 228.391 44.096C228.087 44.72 227.919 45.432 227.887 46.232C227.839 47.336 227.935 48.232 228.175 48.92C228.431 49.608 228.767 50.128 229.183 50.48C229.599 50.832 230.047 51.072 230.527 51.2C231.007 51.328 231.471 51.392 231.919 51.392C232.303 51.392 232.615 51.272 232.855 51.032C233.111 50.792 233.215 50.504 233.167 50.168C233.119 49.832 232.831 49.512 232.303 49.208C231.807 48.936 231.487 48.672 231.343 48.416C231.199 48.16 231.079 47.904 230.983 47.648C230.823 47.232 230.687 46.784 230.575 46.304C230.463 45.824 230.415 45.416 230.431 45.08C230.559 45.128 230.887 45.208 231.415 45.32C231.943 45.416 232.551 45.504 233.239 45.584C233.943 45.664 234.607 45.712 235.231 45.728C235.887 45.728 236.519 45.712 237.127 45.68C237.735 45.632 238.263 45.56 238.711 45.464C239.175 45.368 239.487 45.24 239.647 45.08Z" fill="#EDEDED"/>
</g>
<path d="M2.5008 97.9542C4.01975 97.7624 6.02337 97.8208 7.54955 97.9504C8.02783 97.9904 7.79757 98.2649 8.12821 98.3045C8.77486 98.3815 9.36818 98.2274 10.0081 98.3244C10.2202 98.3578 9.97521 98.7879 10.1972 98.8133C11.4138 98.9498 12.5533 98.7967 13.7817 98.8364C19.8324 99.0323 25.7689 98.95 31.8834 98.8941C33.8994 98.8754 36.3625 99.1571 38.4356 98.9065C38.6776 98.8768 38.5179 98.5145 38.5629 98.4823C39.2686 97.9884 39.0578 98.7415 39.5348 98.8211C41.4281 99.1351 43.5173 99.0846 45.3184 98.8694C46.0846 98.7768 45.2843 98.0766 46.0749 98.4558C46.1298 98.4814 45.9505 98.8803 46.163 98.9134C46.6449 98.9879 47.5491 98.8813 47.9209 98.8973C48.6374 98.9301 48.7554 98.9214 49.431 98.8986C50.3547 98.8707 51.4608 99.0207 52.4478 98.892C52.6585 98.8634 52.3623 98.4739 52.6968 98.392C53.0316 98.3103 53.9259 98.3082 54.2307 98.3905C54.5357 98.4728 54.4202 98.7931 54.4764 98.8631C54.9394 99.4549 55.9382 98.569 56.0702 98.5427C58.4789 98.089 60.5763 98.4859 62.8507 98.3925C64.5774 98.3206 66.4173 98.0872 68.0611 98.0425C70.0196 97.9908 71.6874 98.141 73.5875 98.0267C73.788 98.0151 73.5338 97.5534 73.7787 97.5382C76.3806 97.3781 78.9687 97.3249 81.5745 97.5382C81.8358 97.56 81.5174 97.9873 81.7795 98.0338C83.3839 98.3096 85.9336 99.0246 86.8055 97.1849C87.8858 97.2117 89.1968 97.2315 90.1753 97.5556C90.8063 97.7642 90.2209 98.2394 90.9766 98.0162C91.147 97.9664 90.9071 97.5807 91.1639 97.5358C92.2453 97.3473 93.4382 97.4276 94.5055 97.1802C94.7225 97.1289 94.6485 96.7776 94.7079 96.7114C95.2079 96.1745 96.1096 96.9921 96.3011 97.0465C97.7594 97.4503 98.8033 97.2259 100.145 97.183C100.456 97.1732 100.069 96.713 100.368 96.6865C101.918 96.5556 103.529 96.5314 105.058 96.6807C105.398 96.7151 105.104 97.1324 105.267 97.1695C105.987 97.3283 106.114 96.5575 106.805 96.695C106.95 96.723 106.883 97.0727 106.911 97.1097C107.346 97.6904 107.67 96.8296 107.775 96.8066C109.103 96.4972 109.994 97.3461 111.282 97.1687C111.436 97.1466 111.07 96.7223 111.504 96.687C114.396 96.4488 117.465 96.4453 120.347 96.68C120.795 96.7159 120.49 97.0581 120.52 97.0975C121.003 97.7133 121.264 96.8515 121.408 96.8136C122.546 96.5368 123.646 97.2062 124.385 96.1624C129.256 96.3173 134.068 95.5533 138.922 96.2653C138.984 96.2734 138.891 96.6964 139.014 96.7106C140.495 96.8861 140.186 96.247 141.127 95.412C141.365 95.2023 142.15 96.1327 142.218 96.2005C142.469 96.4502 142.245 97.083 142.328 97.13C143.01 97.4977 142.818 95.4426 143.717 95.4056C143.745 95.4079 143.643 95.7917 143.72 95.8264C143.959 95.9352 144.185 95.7752 144.42 95.8964C144.957 96.1771 145.184 97.1703 145.963 96.5554C146.061 96.4757 145.859 95.3138 146.664 95.3365C146.985 95.3466 148.4 95.2693 148.8 95.3289C149.2 95.3885 148.943 95.776 148.972 95.7911C150.06 96.2457 149.664 96.4684 150.229 97.1837C150.793 97.8963 150.574 96.1512 150.784 95.9469C150.995 95.7432 151.795 96.1222 151.993 96.2572C152.191 96.3922 151.961 96.6412 152.135 96.7151C153.291 97.1973 152.598 95.8257 152.961 95.5327C153.815 94.839 154.554 96.1098 155.366 96.2045C155.585 96.23 155.395 95.9414 155.588 95.9059C156.354 95.7692 156.833 96.1557 157.694 95.7487C157.835 95.6824 158.511 94.873 158.993 95.4274C159.061 95.5074 158.889 95.8385 159.22 95.8977C159.715 95.9867 160.601 96.0217 161.123 95.8922C161.509 95.7965 161.042 95.2812 161.538 95.4271C161.758 95.4923 161.368 95.8205 161.781 95.9169C162.192 96.0134 163.231 95.9576 163.626 95.9309C164.021 95.9039 163.788 95.5082 163.819 95.4796C164.006 95.3157 164.756 95.09 164.823 95.0878C168.199 94.9018 171.341 95.4576 174.621 95.099C174.878 95.0714 174.689 94.6518 174.728 94.6432C175.604 94.4288 174.954 95.591 175.586 95.9457C175.462 95.0837 175.833 95.2257 176.451 95.1056C176.749 95.047 176.572 94.7185 176.598 94.683C177.022 94.156 177.359 94.801 177.444 94.9323C177.759 95.4152 178.055 94.8176 178.269 95.1402C178.483 95.4603 178.042 95.9656 178.638 95.9352C178.793 95.6186 178.317 94.8268 178.765 94.6773C180.455 94.1117 183.672 94.618 185.05 94.6284C186.424 94.6388 186.865 94.5637 187.669 94.6434C189.122 94.7874 188.568 94.2081 189.454 93.8968C190.342 93.5855 189.965 95.0813 190.107 95.3939C190.246 95.7064 190.372 95.3738 190.537 95.542C190.701 95.7102 190.369 95.9401 190.742 95.9906C191.115 96.0411 192.104 95.4351 192.222 95.0976C192.471 94.3824 191.985 93.6621 192.975 93.8821C193.032 93.8952 192.865 94.2913 193.083 94.3218C194.808 94.5517 196.589 94.4983 198.312 94.6937C198.549 94.7212 198.356 95.1621 198.494 95.183C199.931 95.4018 199.392 94.6934 200.141 93.8519C200.009 94.9368 200.468 95.5787 201.551 95.5413C202.202 95.5192 202.071 95.053 202.479 94.7042C202.601 94.599 203.075 94.9036 203.149 94.6789C203.395 93.9441 202.928 93.1516 204.058 93.429C204.107 93.4423 203.967 93.8448 204.138 93.8619C205.238 93.9747 205.338 93.2125 206.517 93.073C207.441 92.9636 209.108 93.3585 210.166 93.3909C210.193 94.6035 211.179 94.2857 211.549 93.4339C212.236 93.4404 212.973 93.3633 213.64 93.452C213.869 93.4821 213.734 93.839 213.764 93.8758C214.229 94.4526 214.494 93.6277 214.64 93.5899C216.23 93.2153 217.56 93.7786 219.065 93.1147C219.118 93.0908 219.172 92.2455 219.606 92.8436C219.634 92.8849 219.145 93.2883 219.865 93.2888C220.586 93.2894 221.96 93.6858 222.943 93.2553C223.181 93.1517 223.765 92.4436 224.277 92.9577C224.345 93.0275 224.283 93.2718 224.383 93.4023C224.706 93.818 224.838 92.9605 225.225 93.6688C225.613 94.3771 226.381 94.8882 227.368 94.3488C227.399 94.333 227.611 93.649 227.928 93.6469C228.434 93.644 229.158 93.7555 229.685 93.7297C229.938 93.7172 229.759 93.305 229.803 93.2955C231.493 92.9922 232.718 93.3165 234.546 93.4049C234.881 93.4219 235.817 92.8121 236.481 93.2374C237.211 93.7029 236.565 95.7881 238.176 95.2323C238.826 95.0099 239.553 92.3682 240.79 93.6716C243.069 93.244 245.218 93.8498 247.497 93.2788C247.6 93.2534 247.897 92.5123 248.141 92.5124C248.502 92.5139 248.714 92.8461 248.973 92.8581C250.057 92.9169 251.033 92.5859 252.076 92.5891C252.472 92.5895 252.348 92.9469 252.82 92.9475C253.292 92.9478 253.587 92.4719 254.234 92.6697C254.723 92.8208 255.244 93.748 255.888 93.8325C255.875 92.8976 256.315 92.8991 257.086 92.621C257.235 92.5671 257.06 92.2486 257.13 92.2063C257.412 92.0271 257.691 92.2856 257.958 92.0922C258.023 92.0457 258.013 91.7266 258.065 91.6706C258.511 91.1822 259.304 91.8686 259.441 91.9882C259.963 92.4422 260.182 92.0179 260.576 92.1891C260.969 92.3603 260.402 92.6171 260.857 92.7123C261.799 92.909 262.997 92.8089 263.945 92.7853C264.324 92.7738 264.048 92.3586 264.102 92.347C264.88 92.2074 265.689 92.6283 266.088 91.7628C266.719 93.9334 266.551 91.531 267.687 91.9247C267.777 91.9567 267.931 92.989 267.599 93.1549C267.267 93.3206 266.741 93.0173 266.281 93.2735C266.173 93.3337 265.576 94.331 265.491 94.3934C264.83 94.8809 264.671 93.3353 264.631 93.2517C264.186 92.3498 263.451 93.428 263.249 93.5086C262.326 93.8779 261.521 93.6921 260.747 93.9604C260.241 94.134 260.232 95.151 259.828 95.1362C258.486 95.0876 257.962 93.6906 256.751 94.9692C256.491 95.242 256.805 96.3404 255.801 95.5073C255.738 95.4548 254.987 94.6859 254.592 95.2074C254.542 95.2732 254.557 95.5964 254.489 95.6263C254.035 95.8207 253.717 95.5755 253.22 95.7192C252.722 95.8629 252.126 96.0712 251.548 95.9847C251.2 95.9331 250.732 95.3487 250.56 95.208C250.076 94.8021 249.603 95.5188 249.293 95.0161C248.98 94.5109 249.519 93.7027 248.74 93.3996C248.746 94.2406 248.715 95.1054 248.704 95.9519C247.026 95.9902 245.364 95.7853 243.683 95.8905C243.474 95.9044 243.706 96.3473 243.483 96.3738C242.542 96.4837 241.705 96.1951 240.732 96.3629C239.978 96.4945 239.167 97.0062 238.38 97.1587C237.857 96.2171 236.695 96.5909 235.837 96.5376C235.537 96.5194 235.547 96.2619 235.331 96.1867C234.516 95.9095 234.926 96.7436 234.711 96.8861C233.791 97.4948 233.632 95.5756 232.521 95.6681C232.462 95.6724 231.783 96.7262 231.686 96.7941C231.073 97.2357 231.568 96.4416 231.17 96.3819C230.444 96.2726 229.933 96.0482 229.1 96.3825C228.857 96.4814 228.291 97.144 227.792 96.6693C227.727 96.6072 227.748 96.2671 227.696 96.2493C226.765 95.9558 226.784 97.021 226.274 97.4027C225.765 97.7842 224.925 97.0823 224.751 96.8772C224.298 96.3469 225.072 96.6298 225.094 96.5751C225.342 95.9243 224.756 96.0583 224.302 96.0225C224.195 94.9816 223.566 95.0698 223.832 95.9896C223.862 96.09 224.21 95.9785 224.302 96.0225C223.947 97.0624 223.259 97.2215 222.454 96.2958C222.077 95.8618 222.395 95.3253 221.313 95.5606C220.822 95.667 221.042 96.3778 220.614 96.5913C219.635 97.0786 218.312 96.4607 217.289 96.6079C216.917 96.6613 217.297 97.0399 217.043 97.09C216.371 97.2241 215.762 96.9531 215.089 97.1318C215.028 97.1485 215.195 97.5541 214.984 97.5679C213.384 97.6805 211.979 97.4732 210.306 97.5335C209.497 97.5628 208.062 97.8483 207.223 97.8365C205.769 97.8185 203.96 97.292 202.726 97.4876C201.922 97.6134 202.116 98.018 201.781 98.3126C201.134 98.8835 199.912 97.9571 199.746 97.8127C199.741 97.8079 200.433 97.6827 200.053 97.4863C199.82 97.0546 199.754 97.8105 199.746 97.8127C199.638 97.7195 198.244 97.6822 197.972 97.7721C197.823 97.8212 197.923 98.2079 197.846 98.2262C196.002 98.6505 194.144 98.8249 192.252 98.7187C192.219 98.7122 192.251 98.2737 192.173 98.2638C191.074 98.1139 190.397 98.676 189.51 99.0294C188.623 99.3826 187.905 99.3053 187.342 98.5776C186.667 98.6994 185.68 98.4076 185.111 98.2293C184.543 98.0509 184.499 98.9036 184.45 98.9224C182.934 99.5222 182.025 99.0719 180.426 99.0607C179.666 99.054 178.166 99.238 177.349 99.3642C176.703 99.4653 176.304 99.282 175.711 99.4335C175.63 99.4537 175.727 99.8287 175.703 99.8443C175.054 100.324 175.337 99.3861 175.193 99.2266C174.669 98.6462 174.347 98.3388 173.504 98.6559C173.309 98.7286 172.789 100.083 172.433 100.176C171.969 100.293 172.126 99.809 171.642 99.9444C171.6 99.9555 171.621 100.25 171.318 100.249C169.914 100.249 168.379 100.14 166.923 100.228C166.724 100.239 166.998 100.696 166.711 100.719C165.364 100.829 163.885 100.872 162.562 100.706C162.236 100.664 162.426 100.329 162.352 100.235C161.897 99.6645 161.32 100.543 161.22 100.563C158.83 101.071 156.957 100.373 154.519 100.84C154.386 100.867 153.396 101.823 152.905 101.057C152.872 101.006 152.386 100.222 152.007 100.787C151.983 100.822 152.283 101.224 151.788 101.202C151.293 101.18 150.51 101.488 149.814 101.061C149.593 100.927 149.054 100.146 148.439 100.811C148.399 100.857 147.469 102.34 147.076 101.359C147.012 101.197 147.029 100.141 146.287 100.712C146.145 100.823 146.42 101.047 146.041 101.209C145.461 101.459 144.668 101.209 143.963 101.708C143.84 101.796 143.331 102.533 142.877 102.007C142.806 101.925 142.92 101.568 142.691 101.538C141.6 101.393 140.475 101.674 139.365 101.475C138.972 101.405 139.148 100.828 138.736 100.692C138.323 100.556 137.499 100.443 137.084 100.72C136.669 100.997 137.171 101.885 136.537 101.983C133.78 102.411 131.016 101.99 128.248 102.024C127.837 102.029 128.19 102.339 127.586 102.37C125.359 102.484 121.525 102.944 119.563 102.333C117.992 101.843 119.924 101.344 118.732 101.167C118.156 101.083 117.581 102.162 117.444 102.201C116.111 102.592 115.156 102.163 113.949 102.356C113.7 102.396 113.963 102.813 113.75 102.842C113.026 102.946 112.253 102.786 111.559 102.849C111.247 102.878 111.318 103.202 111.03 103.188C110.341 103.16 109.728 103.047 109.046 102.768C108.984 102.743 109.379 102.32 108.87 102.326C108.046 102.336 107.013 102.076 106.079 102.425C105.802 102.53 105.821 103.277 105.197 102.786C105.066 102.684 105.191 101.782 104.519 102.584C104.406 102.717 103.267 103.808 102.66 103.159C102.5 102.988 102.08 102.271 101.747 102.4C101.702 102.42 101.902 102.814 101.624 102.864C100.643 103.035 99.6076 103.034 98.5995 103.2C98.3303 103.245 98.7501 103.643 98.3484 103.698C97.2437 103.847 95.855 103.798 94.7655 103.712C94.3637 103.679 94.6262 103.325 94.5956 103.289C94.1032 102.7 93.8598 103.531 93.7065 103.585C92.7525 103.911 92.0016 103.555 91.1157 103.693C90.8712 103.73 91.0612 104.114 91.0137 104.151C90.5204 104.513 90.8697 103.795 90.5456 103.73C89.6376 103.548 88.6365 103.619 87.7292 103.706C87.3959 103.739 87.7897 104.177 87.4904 104.201C85.7195 104.351 83.8733 104.382 82.1318 104.202C81.8039 104.167 81.9949 103.81 81.9237 103.733C81.4328 103.194 80.7773 103.983 80.6223 104.061C79.9176 104.422 79.6262 104.124 78.9944 104.207C75.9082 104.62 72.075 104.57 69.1458 104.562C65.3288 104.553 62.3586 104.34 58.7284 104.574C58.4976 104.588 58.7493 105.043 58.5507 105.062C55.9849 105.278 53.4471 105.198 50.8771 105.437C50.6662 105.455 50.9886 105.883 50.6507 105.928C49.9576 106.023 49.0753 106.035 48.3661 105.923C48.0202 105.869 48.4652 105.473 48.1173 105.426C47.3074 105.317 46.4441 105.32 45.6209 105.424C45.2706 105.47 45.8192 105.899 45.3625 105.922C42.2518 106.093 39.1982 106.294 36.0293 105.838C35.8121 105.807 35.5858 104.899 35.1345 105.093C35.1102 105.348 35.1242 105.647 35.1201 105.919C30.5951 106.249 26.0975 106.113 21.5518 106.248C21.3602 106.253 21.7109 106.725 21.3399 106.739C19.193 106.818 17.114 107.037 14.8987 106.644C14.6789 106.605 14.7562 105.747 14.1194 105.902C14.0071 105.931 13.0447 106.083 12.8022 106.279C12.7694 106.308 12.9619 106.699 12.6508 106.724C10.8425 106.857 8.9413 106.843 7.12386 106.673C6.83051 106.645 7.12403 106.208 6.91494 106.184C5.43191 106.018 3.84174 106.406 2.41776 106.078C1.46453 105.856 1.78391 105.109 1.25376 104.408C1.17879 104.309 0.594363 104.316 0.547192 103.897C0.426986 102.845 0.662986 101.677 0.501445 100.556C0.467128 100.315 -0.304134 100.607 0.135063 100.003C0.165815 99.9622 0.724775 99.7449 0.856347 99.5405C0.947991 99.3992 0.755561 98.9792 0.946768 98.7953C1.13796 98.6115 1.37035 98.9607 1.69078 98.7407C2.01095 98.5182 1.8468 98.0383 2.5008 97.9542ZM182.551 97.433C182.016 97.046 182 98.5434 182.547 98.1632C182.573 98.143 182.579 97.4519 182.551 97.433ZM245.328 94.6578C244.623 94.0262 244.198 95.0141 244.697 95.5037C245.196 95.9928 245.543 94.8493 245.328 94.6578ZM252.344 93.8922C251.53 93.4046 251.49 95.5285 252.322 95.0659C252.371 95.0397 252.391 93.9205 252.344 93.8922ZM3.56864 104.108C3.56067 104.089 3.14025 104.086 3.13102 104.106C2.92676 104.59 3.76741 104.594 3.56864 104.108ZM259.303 93.086C259.044 92.8094 258.345 93.1691 258.667 93.5131C258.926 93.7898 259.626 93.4301 259.303 93.086ZM155.417 96.933C155.408 96.911 155.106 96.9032 155.117 97.0288C155.154 97.4333 155.568 97.302 155.417 96.933ZM271.167 92.5818C269.411 92.5729 268.277 90.8656 270.194 90.9859C270.542 91.0076 269.472 91.5742 269.918 91.7142C270.735 91.9691 271.225 90.8485 272.071 91.4042C272.224 91.5059 271.268 92.5862 271.164 92.5843C271.165 92.5835 271.166 92.5826 271.167 92.5818ZM182.18 95.6503C182.169 95.631 181.752 95.6291 181.742 95.6491C181.536 96.1326 182.377 96.1366 182.18 95.6503ZM137.824 96.719C137.8 96.6778 136.832 96.6775 136.802 96.7176C136.329 97.5137 138.286 97.5166 137.824 96.719ZM210.184 93.4225C210.619 92.9269 211.161 92.8487 211.547 93.4334C211.094 93.4198 210.639 93.4335 210.184 93.4225Z" fill="white"/>
<defs>
<filter id="filter0_d_202_66" x="0.0805664" y="9.72" width="265.198" height="86.72" filterUnits="userSpaceOnUse" color-interpolation-filters="sRGB">
<feFlood flood-opacity="0" result="BackgroundImageFix"/>
<feColorMatrix in="SourceAlpha" type="matrix" values="0 0 0 0 0 0 0 0 0 0 0 0 0 0 0 0 0 0 127 0" result="hardAlpha"/>
<feOffset dy="4"/>
<feGaussianBlur stdDeviation="2"/>
<feComposite in2="hardAlpha" operator="out"/>
<feColorMatrix type="matrix" values="0 0 0 0 0 0 0 0 0 0 0 0 0 0 0 0 0 0 0.25 0"/>
<feBlend mode="normal" in2="BackgroundImageFix" result="effect1_dropShadow_202_66"/>
<feBlend mode="normal" in="SourceGraphic" in2="effect1_dropShadow_202_66" result="shape"/>
</filter>
</defs>
</svg>
